<svg width="286" height="105" viewBox="0 0 286 105" fill="none" xmlns="http://www.w3.org/2000/svg">
<g filter="url(#filter0_f_411_252)">
<rect x="20.5566" y="20.8144" width="244.941" height="62.9996" rx="31.4998" stroke="#CCEAFF"/>
</g>
<g filter="url(#filter1_bf_411_252)">
<rect x="20.0566" y="20.3144" width="245.941" height="63.9996" rx="31.9998" fill="#3FD0FF" fill-opacity="0.08"/>
<rect x="20.5566" y="20.8144" width="244.941" height="62.9996" rx="31.4998" stroke="#010113"/>
</g>
<rect x="10.75" y="13.7499" width="244.441" height="62.4996" rx="31.2498" stroke="#4C4C5B" stroke-width="1.5"/>
<g filter="url(#filter2_d_411_252)">
<path d="M60.1984 55.8576L56.2277 51.8868M56.2277 51.8868C56.9069 51.2076 57.4457 50.4013 57.8133 49.5139C58.1809 48.6264 58.3701 47.6753 58.3701 46.7148C58.3701 45.7542 58.1809 44.8031 57.8133 43.9156C57.4457 43.0282 56.9069 42.2219 56.2277 41.5427C55.5485 40.8635 54.7422 40.3247 53.8547 39.9571C52.9673 39.5895 52.0162 39.4003 51.0556 39.4003C50.0951 39.4003 49.144 39.5895 48.2565 39.9571C47.3691 40.3247 46.5628 40.8635 45.8836 41.5427C44.5118 42.9144 43.7412 44.7749 43.7412 46.7148C43.7412 48.6547 44.5118 50.5151 45.8836 51.8868C47.2553 53.2586 49.1157 54.0292 51.0556 54.0292C52.9955 54.0292 54.856 53.2586 56.2277 51.8868Z" stroke="#4C4C5B" stroke-width="1.5" stroke-linecap="round" stroke-linejoin="round"/>
</g>
<path d="M77.1859 54.5429L82.2239 39.1429H84.7319L89.7699 54.5429H88.2959L86.9759 50.4509H79.9799L78.6599 54.5429H77.1859ZM80.3759 49.1749H86.5799L83.6099 39.9789H83.3459L80.3759 49.1749ZM96.1264 54.8509C94.8357 54.8509 93.7284 54.5429 92.8044 53.9269C91.895 53.3109 91.3377 52.2916 91.1324 50.8689L92.4304 50.6269C92.5477 51.4042 92.7824 52.0202 93.1344 52.4749C93.501 52.9149 93.941 53.2302 94.4544 53.4209C94.9824 53.6116 95.5397 53.7069 96.1264 53.7069C97.0064 53.7069 97.7104 53.5309 98.2384 53.1789C98.781 52.8122 99.0524 52.3136 99.0524 51.6829C99.0524 51.0376 98.7957 50.5902 98.2824 50.3409C97.7837 50.0916 97.1164 49.8936 96.2804 49.7469L95.2684 49.5709C94.5937 49.4536 93.985 49.2776 93.4424 49.0429C92.8997 48.7936 92.467 48.4636 92.1444 48.0529C91.8364 47.6422 91.6824 47.1289 91.6824 46.5129C91.6824 45.5889 92.0417 44.8629 92.7604 44.3349C93.4937 43.8069 94.4617 43.5429 95.6644 43.5429C96.8817 43.5429 97.857 43.8216 98.5904 44.3789C99.3384 44.9216 99.8077 45.7136 99.9984 46.7549L98.7664 47.0189C98.6197 46.1682 98.2677 45.5669 97.7104 45.2149C97.1677 44.8629 96.4857 44.6869 95.6644 44.6869C94.8577 44.6869 94.2124 44.8409 93.7284 45.1489C93.2444 45.4569 93.0024 45.9116 93.0024 46.5129C93.0024 47.0996 93.2224 47.5322 93.6624 47.8109C94.1024 48.0749 94.7037 48.2729 95.4664 48.4049L96.4784 48.5809C97.2117 48.6982 97.8717 48.8742 98.4584 49.1089C99.045 49.3289 99.507 49.6442 99.8444 50.0549C100.196 50.4656 100.372 51.0082 100.372 51.6829C100.372 52.6949 99.991 53.4796 99.2284 54.0369C98.4657 54.5796 97.4317 54.8509 96.1264 54.8509ZM103.063 54.5429V39.1429H104.383V48.4269H104.647L110.125 43.8509H112.061L105.725 49.0649L112.237 54.5429H110.323L104.647 49.7249H104.383V54.5429H103.063ZM117.836 54.5429L122.874 39.1429H125.382L130.42 54.5429H128.946L127.626 50.4509H120.63L119.31 54.5429H117.836ZM121.026 49.1749H127.23L124.26 39.9789H123.996L121.026 49.1749ZM132.531 54.5429V43.8509H133.807V45.8309H134.071C134.335 45.2589 134.767 44.7529 135.369 44.3129C135.97 43.8582 136.843 43.6309 137.987 43.6309C138.764 43.6309 139.475 43.7922 140.121 44.1149C140.766 44.4376 141.279 44.9289 141.661 45.5889C142.057 46.2342 142.255 47.0482 142.255 48.0309V54.5429H140.935V48.1189C140.935 46.9456 140.641 46.1022 140.055 45.5889C139.468 45.0756 138.683 44.8189 137.701 44.8189C136.601 44.8189 135.684 45.1856 134.951 45.9189C134.217 46.6376 133.851 47.7302 133.851 49.1969V54.5429H132.531ZM146.731 58.9429V57.7549H152.979C153.419 57.7549 153.639 57.5349 153.639 57.0949V52.6949H153.375C153.199 53.0469 152.95 53.3842 152.627 53.7069C152.319 54.0149 151.909 54.2716 151.395 54.4769C150.897 54.6676 150.266 54.7629 149.503 54.7629C148.741 54.7629 148.029 54.6016 147.369 54.2789C146.724 53.9562 146.203 53.4722 145.807 52.8269C145.426 52.1816 145.235 51.3676 145.235 50.3849V43.8509H146.555V50.2969C146.555 51.4556 146.849 52.2916 147.435 52.8049C148.022 53.3182 148.807 53.5749 149.789 53.5749C150.889 53.5749 151.806 53.2156 152.539 52.4969C153.273 51.7782 153.639 50.6856 153.639 49.2189V43.8509H154.959V57.2709C154.959 57.7989 154.813 58.2096 154.519 58.5029C154.241 58.7962 153.815 58.9429 153.243 58.9429H146.731ZM162.271 54.5429C161.699 54.5429 161.266 54.3962 160.973 54.1029C160.694 53.8096 160.555 53.3989 160.555 52.8709V45.0389H157.123V43.8509H160.555V39.8469H161.875V43.8509H165.615V45.0389H161.875V52.6949C161.875 53.1349 162.095 53.3549 162.535 53.3549H165.043V54.5429H162.271ZM168.121 54.5429V39.1429H169.441V45.7209H169.705C169.881 45.3689 170.123 45.0389 170.431 44.7309C170.753 44.4082 171.164 44.1516 171.663 43.9609C172.176 43.7556 172.814 43.6529 173.577 43.6529C174.354 43.6529 175.065 43.8142 175.711 44.1369C176.356 44.4596 176.869 44.9436 177.251 45.5889C177.647 46.2342 177.845 47.0482 177.845 48.0309V54.5429H176.525V48.1189C176.525 46.9456 176.231 46.1096 175.645 45.6109C175.058 45.0976 174.273 44.8409 173.291 44.8409C172.191 44.8409 171.274 45.2002 170.541 45.9189C169.807 46.6376 169.441 47.7302 169.441 49.1969V54.5429H168.121ZM181.151 54.5429V43.8509H182.471V54.5429H181.151ZM181.811 42.0029C181.489 42.0029 181.217 41.8929 180.997 41.6729C180.777 41.4529 180.667 41.1816 180.667 40.8589C180.667 40.5216 180.777 40.2502 180.997 40.0449C181.217 39.8249 181.489 39.7149 181.811 39.7149C182.149 39.7149 182.42 39.8249 182.625 40.0449C182.845 40.2502 182.955 40.5216 182.955 40.8589C182.955 41.1816 182.845 41.4529 182.625 41.6729C182.42 41.8929 182.149 42.0029 181.811 42.0029ZM185.911 54.5429V43.8509H187.187V45.8309H187.451C187.715 45.2589 188.147 44.7529 188.749 44.3129C189.35 43.8582 190.223 43.6309 191.367 43.6309C192.144 43.6309 192.855 43.7922 193.501 44.1149C194.146 44.4376 194.659 44.9289 195.041 45.5889C195.437 46.2342 195.635 47.0482 195.635 48.0309V54.5429H194.315V48.1189C194.315 46.9456 194.021 46.1022 193.435 45.5889C192.848 45.0756 192.063 44.8189 191.081 44.8189C189.981 44.8189 189.064 45.1856 188.331 45.9189C187.597 46.6376 187.231 47.7302 187.231 49.1969V54.5429H185.911ZM198.413 49.2409V48.9769C198.413 47.8476 198.641 46.8796 199.095 46.0729C199.565 45.2662 200.188 44.6429 200.965 44.2029C201.743 43.7629 202.608 43.5429 203.561 43.5429C204.735 43.5429 205.644 43.7776 206.289 44.2469C206.949 44.7016 207.433 45.2222 207.741 45.8089H208.005V43.8509H209.237V57.2709C209.237 57.7989 209.098 58.2096 208.819 58.5029C208.541 58.7962 208.115 58.9429 207.543 58.9429H200.239V57.7549H207.279C207.734 57.7549 207.961 57.5349 207.961 57.0949V52.4969H207.697C207.507 52.8489 207.235 53.1936 206.883 53.5309C206.546 53.8682 206.106 54.1469 205.563 54.3669C205.021 54.5722 204.353 54.6749 203.561 54.6749C202.608 54.6749 201.735 54.4549 200.943 54.0149C200.166 53.5749 199.55 52.9516 199.095 52.1449C198.641 51.3236 198.413 50.3556 198.413 49.2409ZM203.869 53.4869C205.087 53.4869 206.069 53.1056 206.817 52.3429C207.58 51.5802 207.961 50.5316 207.961 49.1969V49.0209C207.961 47.6716 207.58 46.6229 206.817 45.8749C206.069 45.1122 205.087 44.7309 203.869 44.7309C202.667 44.7309 201.684 45.1122 200.921 45.8749C200.159 46.6229 199.777 47.6716 199.777 49.0209V49.1969C199.777 50.5316 200.159 51.5802 200.921 52.3429C201.684 53.1056 202.667 53.4869 203.869 53.4869ZM213.297 54.8509C212.931 54.8509 212.63 54.7336 212.395 54.4989C212.161 54.2642 212.043 53.9636 212.043 53.5969C212.043 53.2302 212.161 52.9296 212.395 52.6949C212.63 52.4602 212.931 52.3429 213.297 52.3429C213.664 52.3429 213.965 52.4602 214.199 52.6949C214.434 52.9296 214.551 53.2302 214.551 53.5969C214.551 53.9636 214.434 54.2642 214.199 54.4989C213.965 54.7336 213.664 54.8509 213.297 54.8509ZM218.014 54.8509C217.647 54.8509 217.346 54.7336 217.112 54.4989C216.877 54.2642 216.76 53.9636 216.76 53.5969C216.76 53.2302 216.877 52.9296 217.112 52.6949C217.346 52.4602 217.647 52.3429 218.014 52.3429C218.38 52.3429 218.681 52.4602 218.916 52.6949C219.15 52.9296 219.268 53.2302 219.268 53.5969C219.268 53.9636 219.15 54.2642 218.916 54.4989C218.681 54.7336 218.38 54.8509 218.014 54.8509ZM222.73 54.8509C222.363 54.8509 222.063 54.7336 221.828 54.4989C221.593 54.2642 221.476 53.9636 221.476 53.5969C221.476 53.2302 221.593 52.9296 221.828 52.6949C222.063 52.4602 222.363 52.3429 222.73 52.3429C223.097 52.3429 223.397 52.4602 223.632 52.6949C223.867 52.9296 223.984 53.2302 223.984 53.5969C223.984 53.9636 223.867 54.2642 223.632 54.4989C223.397 54.7336 223.097 54.8509 222.73 54.8509Z" fill="#4C4C5B"/>
<defs>
<filter id="filter0_f_411_252" x="19.0566" y="19.3144" width="247.941" height="65.9996" filterUnits="userSpaceOnUse" color-interpolation-filters="sRGB">
<feFlood flood-opacity="0" result="BackgroundImageFix"/>
<feBlend mode="normal" in="SourceGraphic" in2="BackgroundImageFix" result="shape"/>
<feGaussianBlur stdDeviation="0.5" result="effect1_foregroundBlur_411_252"/>
</filter>
<filter id="filter1_bf_411_252" x="-0.943359" y="-0.685608" width="287.941" height="106" filterUnits="userSpaceOnUse" color-interpolation-filters="sRGB">
<feFlood flood-opacity="0" result="BackgroundImageFix"/>
<feGaussianBlur in="BackgroundImageFix" stdDeviation="10.5"/>
<feComposite in2="SourceAlpha" operator="in" result="effect1_backgroundBlur_411_252"/>
<feBlend mode="normal" in="SourceGraphic" in2="effect1_backgroundBlur_411_252" result="shape"/>
<feGaussianBlur stdDeviation="10" result="effect2_foregroundBlur_411_252"/>
</filter>
<filter id="filter2_d_411_252" x="36.9985" y="36.6577" width="29.9429" height="29.9427" filterUnits="userSpaceOnUse" color-interpolation-filters="sRGB">
<feFlood flood-opacity="0" result="BackgroundImageFix"/>
<feColorMatrix in="SourceAlpha" type="matrix" values="0 0 0 0 0 0 0 0 0 0 0 0 0 0 0 0 0 0 127 0" result="hardAlpha"/>
<feOffset dy="4"/>
<feGaussianBlur stdDeviation="2"/>
<feComposite in2="hardAlpha" operator="out"/>
<feColorMatrix type="matrix" values="0 0 0 0 0 0 0 0 0 0 0 0 0 0 0 0 0 0 0.25 0"/>
<feBlend mode="normal" in2="BackgroundImageFix" result="effect1_dropShadow_411_252"/>
<feBlend mode="normal" in="SourceGraphic" in2="effect1_dropShadow_411_252" result="shape"/>
</filter>
</defs>
</svg>
