<svg width="298" height="107" viewBox="0 0 298 107" fill="none" xmlns="http://www.w3.org/2000/svg">
<g filter="url(#filter0_f_483_94)">
<rect x="38.5" y="24.5" width="238" height="64" rx="32" stroke="#CCEAFF"/>
</g>
<g filter="url(#filter1_bf_483_94)">
<rect x="38" y="25" width="237" height="62" rx="31" fill="#3FD0FF" fill-opacity="0.08"/>
<rect x="38.5" y="25.5" width="236" height="61" rx="30.5" stroke="#010113"/>
</g>
<rect x="21.75" y="17.75" width="244.498" height="62.7794" rx="31.3897" stroke="#4C4C5B" stroke-width="1.5"/>
<g filter="url(#filter2_d_483_94)">
<path d="M71.3869 60.69L67.5859 56.6916M67.5859 56.6916C68.2361 56.0076 68.7518 55.1956 69.1037 54.302C69.4556 53.4084 69.6367 52.4506 69.6367 51.4833C69.6367 50.5161 69.4556 49.5583 69.1037 48.6647C68.7518 47.771 68.2361 46.9591 67.5859 46.2751C66.9357 45.5912 66.1639 45.0486 65.3144 44.6785C64.4649 44.3083 63.5544 44.1178 62.6349 44.1178C61.7154 44.1178 60.8049 44.3083 59.9554 44.6785C59.1059 45.0486 58.334 45.5912 57.6838 46.2751C56.3707 47.6564 55.6331 49.5299 55.6331 51.4833C55.6331 53.4368 56.3707 55.3103 57.6838 56.6916C58.9969 58.0729 60.7779 58.8489 62.6349 58.8489C64.4919 58.8489 66.2728 58.0729 67.5859 56.6916Z" stroke="#4C4C5B" stroke-width="1.5" stroke-linecap="round" stroke-linejoin="round"/>
</g>
<path d="M87.7777 60.0742L92.8157 44.6742H95.3237L100.362 60.0742H98.8877L97.5677 55.9822H90.5717L89.2517 60.0742H87.7777ZM90.9677 54.7062H97.1717L94.2017 45.5102H93.9377L90.9677 54.7062ZM106.718 60.3822C105.427 60.3822 104.32 60.0742 103.396 59.4582C102.487 58.8422 101.929 57.8229 101.724 56.4002L103.022 56.1582C103.139 56.9356 103.374 57.5516 103.726 58.0062C104.093 58.4462 104.533 58.7616 105.046 58.9522C105.574 59.1429 106.131 59.2382 106.718 59.2382C107.598 59.2382 108.302 59.0622 108.83 58.7102C109.373 58.3436 109.644 57.8449 109.644 57.2142C109.644 56.5689 109.387 56.1216 108.874 55.8722C108.375 55.6229 107.708 55.4249 106.872 55.2782L105.86 55.1022C105.185 54.9849 104.577 54.8089 104.034 54.5742C103.491 54.3249 103.059 53.9949 102.736 53.5842C102.428 53.1736 102.274 52.6602 102.274 52.0442C102.274 51.1202 102.633 50.3942 103.352 49.8662C104.085 49.3382 105.053 49.0742 106.256 49.0742C107.473 49.0742 108.449 49.3529 109.182 49.9102C109.93 50.4529 110.399 51.2449 110.59 52.2862L109.358 52.5502C109.211 51.6996 108.859 51.0982 108.302 50.7462C107.759 50.3942 107.077 50.2182 106.256 50.2182C105.449 50.2182 104.804 50.3722 104.32 50.6802C103.836 50.9882 103.594 51.4429 103.594 52.0442C103.594 52.6309 103.814 53.0636 104.254 53.3422C104.694 53.6062 105.295 53.8042 106.058 53.9362L107.07 54.1122C107.803 54.2296 108.463 54.4056 109.05 54.6402C109.637 54.8602 110.099 55.1756 110.436 55.5862C110.788 55.9969 110.964 56.5396 110.964 57.2142C110.964 58.2262 110.583 59.0109 109.82 59.5682C109.057 60.1109 108.023 60.3822 106.718 60.3822ZM113.655 60.0742V44.6742H114.975V53.9582H115.239L120.717 49.3822H122.653L116.317 54.5962L122.829 60.0742H120.915L115.239 55.2562H114.975V60.0742H113.655ZM128.428 60.0742L133.466 44.6742H135.974L141.012 60.0742H139.538L138.218 55.9822H131.222L129.902 60.0742H128.428ZM131.618 54.7062H137.822L134.852 45.5102H134.588L131.618 54.7062ZM143.122 60.0742V49.3822H144.398V51.3622H144.662C144.926 50.7902 145.359 50.2842 145.96 49.8442C146.562 49.3896 147.434 49.1622 148.578 49.1622C149.356 49.1622 150.067 49.3236 150.712 49.6462C151.358 49.9689 151.871 50.4602 152.252 51.1202C152.648 51.7656 152.846 52.5796 152.846 53.5622V60.0742H151.526V53.6502C151.526 52.4769 151.233 51.6336 150.646 51.1202C150.06 50.6069 149.275 50.3502 148.292 50.3502C147.192 50.3502 146.276 50.7169 145.542 51.4502C144.809 52.1689 144.442 53.2616 144.442 54.7282V60.0742H143.122ZM157.323 64.4742V63.2862H163.571C164.011 63.2862 164.231 63.0662 164.231 62.6262V58.2262H163.967C163.791 58.5782 163.542 58.9156 163.219 59.2382C162.911 59.5462 162.5 59.8029 161.987 60.0082C161.488 60.1989 160.858 60.2942 160.095 60.2942C159.332 60.2942 158.621 60.1329 157.961 59.8102C157.316 59.4876 156.795 59.0036 156.399 58.3582C156.018 57.7129 155.827 56.8989 155.827 55.9162V49.3822H157.147V55.8282C157.147 56.9869 157.44 57.8229 158.027 58.3362C158.614 58.8496 159.398 59.1062 160.381 59.1062C161.481 59.1062 162.398 58.7469 163.131 58.0282C163.864 57.3096 164.231 56.2169 164.231 54.7502V49.3822H165.551V62.8022C165.551 63.3302 165.404 63.7409 165.111 64.0342C164.832 64.3276 164.407 64.4742 163.835 64.4742H157.323ZM172.862 60.0742C172.29 60.0742 171.858 59.9276 171.564 59.6342C171.286 59.3409 171.146 58.9302 171.146 58.4022V50.5702H167.714V49.3822H171.146V45.3782H172.466V49.3822H176.206V50.5702H172.466V58.2262C172.466 58.6662 172.686 58.8862 173.126 58.8862H175.634V60.0742H172.862ZM178.712 60.0742V44.6742H180.032V51.2522H180.296C180.472 50.9002 180.714 50.5702 181.022 50.2622C181.345 49.9396 181.756 49.6829 182.254 49.4922C182.768 49.2869 183.406 49.1842 184.168 49.1842C184.946 49.1842 185.657 49.3456 186.302 49.6682C186.948 49.9909 187.461 50.4749 187.842 51.1202C188.238 51.7656 188.436 52.5796 188.436 53.5622V60.0742H187.116V53.6502C187.116 52.4769 186.823 51.6409 186.236 51.1422C185.65 50.6289 184.865 50.3722 183.882 50.3722C182.782 50.3722 181.866 50.7316 181.132 51.4502C180.399 52.1689 180.032 53.2616 180.032 54.7282V60.0742H178.712ZM191.743 60.0742V49.3822H193.063V60.0742H191.743ZM192.403 47.5342C192.08 47.5342 191.809 47.4242 191.589 47.2042C191.369 46.9842 191.259 46.7129 191.259 46.3902C191.259 46.0529 191.369 45.7816 191.589 45.5762C191.809 45.3562 192.08 45.2462 192.403 45.2462C192.74 45.2462 193.012 45.3562 193.217 45.5762C193.437 45.7816 193.547 46.0529 193.547 46.3902C193.547 46.7129 193.437 46.9842 193.217 47.2042C193.012 47.4242 192.74 47.5342 192.403 47.5342ZM196.502 60.0742V49.3822H197.778V51.3622H198.042C198.306 50.7902 198.739 50.2842 199.34 49.8442C199.942 49.3896 200.814 49.1622 201.958 49.1622C202.736 49.1622 203.447 49.3236 204.092 49.6462C204.738 49.9689 205.251 50.4602 205.632 51.1202C206.028 51.7656 206.226 52.5796 206.226 53.5622V60.0742H204.906V53.6502C204.906 52.4769 204.613 51.6336 204.026 51.1202C203.44 50.6069 202.655 50.3502 201.672 50.3502C200.572 50.3502 199.656 50.7169 198.922 51.4502C198.189 52.1689 197.822 53.2616 197.822 54.7282V60.0742H196.502ZM209.005 54.7722V54.5082C209.005 53.3789 209.232 52.4109 209.687 51.6042C210.156 50.7976 210.78 50.1742 211.557 49.7342C212.334 49.2942 213.2 49.0742 214.153 49.0742C215.326 49.0742 216.236 49.3089 216.881 49.7782C217.541 50.2329 218.025 50.7536 218.333 51.3402H218.597V49.3822H219.829V62.8022C219.829 63.3302 219.69 63.7409 219.411 64.0342C219.132 64.3276 218.707 64.4742 218.135 64.4742H210.831V63.2862H217.871C218.326 63.2862 218.553 63.0662 218.553 62.6262V58.0282H218.289C218.098 58.3802 217.827 58.7249 217.475 59.0622C217.138 59.3996 216.698 59.6782 216.155 59.8982C215.612 60.1036 214.945 60.2062 214.153 60.2062C213.2 60.2062 212.327 59.9862 211.535 59.5462C210.758 59.1062 210.142 58.4829 209.687 57.6762C209.232 56.8549 209.005 55.8869 209.005 54.7722ZM214.461 59.0182C215.678 59.0182 216.661 58.6369 217.409 57.8742C218.172 57.1116 218.553 56.0629 218.553 54.7282V54.5522C218.553 53.2029 218.172 52.1542 217.409 51.4062C216.661 50.6436 215.678 50.2622 214.461 50.2622C213.258 50.2622 212.276 50.6436 211.513 51.4062C210.75 52.1542 210.369 53.2029 210.369 54.5522V54.7282C210.369 56.0629 210.75 57.1116 211.513 57.8742C212.276 58.6369 213.258 59.0182 214.461 59.0182ZM223.889 60.3822C223.523 60.3822 223.222 60.2649 222.987 60.0302C222.753 59.7956 222.635 59.4949 222.635 59.1282C222.635 58.7616 222.753 58.4609 222.987 58.2262C223.222 57.9916 223.523 57.8742 223.889 57.8742C224.256 57.8742 224.557 57.9916 224.791 58.2262C225.026 58.4609 225.143 58.7616 225.143 59.1282C225.143 59.4949 225.026 59.7956 224.791 60.0302C224.557 60.2649 224.256 60.3822 223.889 60.3822ZM228.606 60.3822C228.239 60.3822 227.938 60.2649 227.704 60.0302C227.469 59.7956 227.352 59.4949 227.352 59.1282C227.352 58.7616 227.469 58.4609 227.704 58.2262C227.938 57.9916 228.239 57.8742 228.606 57.8742C228.972 57.8742 229.273 57.9916 229.508 58.2262C229.742 58.4609 229.86 58.7616 229.86 59.1282C229.86 59.4949 229.742 59.7956 229.508 60.0302C229.273 60.2649 228.972 60.3822 228.606 60.3822ZM233.322 60.3822C232.955 60.3822 232.654 60.2649 232.42 60.0302C232.185 59.7956 232.068 59.4949 232.068 59.1282C232.068 58.7616 232.185 58.4609 232.42 58.2262C232.654 57.9916 232.955 57.8742 233.322 57.8742C233.688 57.8742 233.989 57.9916 234.224 58.2262C234.458 58.4609 234.576 58.7616 234.576 59.1282C234.576 59.4949 234.458 59.7956 234.224 60.0302C233.989 60.2649 233.688 60.3822 233.322 60.3822Z" fill="#4C4C5B"/>
<defs>
<filter id="filter0_f_483_94" x="37" y="23" width="241" height="67" filterUnits="userSpaceOnUse" color-interpolation-filters="sRGB">
<feFlood flood-opacity="0" result="BackgroundImageFix"/>
<feBlend mode="normal" in="SourceGraphic" in2="BackgroundImageFix" result="shape"/>
<feGaussianBlur stdDeviation="0.5" result="effect1_foregroundBlur_483_94"/>
</filter>
<filter id="filter1_bf_483_94" x="17" y="4" width="279" height="104" filterUnits="userSpaceOnUse" color-interpolation-filters="sRGB">
<feFlood flood-opacity="0" result="BackgroundImageFix"/>
<feGaussianBlur in="BackgroundImageFix" stdDeviation="10.5"/>
<feComposite in2="SourceAlpha" operator="in" result="effect1_backgroundBlur_483_94"/>
<feBlend mode="normal" in="SourceGraphic" in2="effect1_backgroundBlur_483_94" result="shape"/>
<feGaussianBlur stdDeviation="10" result="effect2_foregroundBlur_483_94"/>
</filter>
<filter id="filter2_d_483_94" x="49.0076" y="41.1047" width="29.0049" height="30.0961" filterUnits="userSpaceOnUse" color-interpolation-filters="sRGB">
<feFlood flood-opacity="0" result="BackgroundImageFix"/>
<feColorMatrix in="SourceAlpha" type="matrix" values="0 0 0 0 0 0 0 0 0 0 0 0 0 0 0 0 0 0 127 0" result="hardAlpha"/>
<feOffset dy="4"/>
<feGaussianBlur stdDeviation="2"/>
<feComposite in2="hardAlpha" operator="out"/>
<feColorMatrix type="matrix" values="0 0 0 0 0 0 0 0 0 0 0 0 0 0 0 0 0 0 0.25 0"/>
<feBlend mode="normal" in2="BackgroundImageFix" result="effect1_dropShadow_483_94"/>
<feBlend mode="normal" in="SourceGraphic" in2="effect1_dropShadow_483_94" result="shape"/>
</filter>
</defs>
</svg>
