<svg width="298" height="107" viewBox="0 0 298 107" fill="none" xmlns="http://www.w3.org/2000/svg">
<g filter="url(#filter0_b_487_102)">
<rect x="31.0569" y="24.3143" width="245.941" height="63.9996" rx="31.9998" fill="white" fill-opacity="0.05"/>
</g>
<g filter="url(#filter1_b_487_102)">
<rect x="21.75" y="17.75" width="244.441" height="62.4996" rx="31.2498" stroke="#CCEAFF" stroke-opacity="0.25" stroke-width="1.5"/>
</g>
<path d="M72.1999 59.8575L68.2292 55.8868M68.2292 55.8868C68.9084 55.2076 69.4472 54.4012 69.8148 53.5138C70.1823 52.6264 70.3715 51.6752 70.3715 50.7147C70.3715 49.7542 70.1823 48.803 69.8148 47.9156C69.4472 47.0282 68.9084 46.2218 68.2292 45.5426C67.55 44.8634 66.7436 44.3246 65.8562 43.957C64.9688 43.5895 64.0176 43.4003 63.0571 43.4003C62.0966 43.4003 61.1454 43.5895 60.258 43.957C59.3706 44.3246 58.5642 44.8634 57.885 45.5426C56.5133 46.9143 55.7427 48.7748 55.7427 50.7147C55.7427 52.6546 56.5133 54.5151 57.885 55.8868C59.2567 57.2585 61.1172 58.0291 63.0571 58.0291C64.997 58.0291 66.8575 57.2585 68.2292 55.8868Z" stroke="#8B9FBC" stroke-width="1.5" stroke-linecap="round" stroke-linejoin="round"/>
<path d="M87.7587 58.5428L92.7967 43.1428H95.3047L100.343 58.5428H98.8687L97.5487 54.4508H90.5527L89.2327 58.5428H87.7587ZM90.9487 53.1748H97.1527L94.1827 43.9788H93.9187L90.9487 53.1748ZM106.699 58.8508C105.408 58.8508 104.301 58.5428 103.377 57.9268C102.468 57.3108 101.91 56.2915 101.705 54.8688L103.003 54.6268C103.12 55.4042 103.355 56.0202 103.707 56.4748C104.074 56.9148 104.514 57.2302 105.027 57.4208C105.555 57.6115 106.112 57.7068 106.699 57.7068C107.579 57.7068 108.283 57.5308 108.811 57.1788C109.354 56.8122 109.625 56.3135 109.625 55.6828C109.625 55.0375 109.368 54.5902 108.855 54.3408C108.356 54.0915 107.689 53.8935 106.853 53.7468L105.841 53.5708C105.166 53.4535 104.558 53.2775 104.015 53.0428C103.472 52.7935 103.04 52.4635 102.717 52.0528C102.409 51.6422 102.255 51.1288 102.255 50.5128C102.255 49.5888 102.614 48.8628 103.333 48.3348C104.066 47.8068 105.034 47.5428 106.237 47.5428C107.454 47.5428 108.43 47.8215 109.163 48.3788C109.911 48.9215 110.38 49.7135 110.571 50.7548L109.339 51.0188C109.192 50.1682 108.84 49.5668 108.283 49.2148C107.74 48.8628 107.058 48.6868 106.237 48.6868C105.43 48.6868 104.785 48.8408 104.301 49.1488C103.817 49.4568 103.575 49.9115 103.575 50.5128C103.575 51.0995 103.795 51.5322 104.235 51.8108C104.675 52.0748 105.276 52.2728 106.039 52.4048L107.051 52.5808C107.784 52.6982 108.444 52.8742 109.031 53.1088C109.618 53.3288 110.08 53.6442 110.417 54.0548C110.769 54.4655 110.945 55.0082 110.945 55.6828C110.945 56.6948 110.564 57.4795 109.801 58.0368C109.038 58.5795 108.004 58.8508 106.699 58.8508ZM113.636 58.5428V43.1428H114.956V52.4268H115.22L120.698 47.8508H122.634L116.298 53.0648L122.81 58.5428H120.896L115.22 53.7248H114.956V58.5428H113.636ZM128.409 58.5428L133.447 43.1428H135.955L140.993 58.5428H139.519L138.199 54.4508H131.203L129.883 58.5428H128.409ZM131.599 53.1748H137.803L134.833 43.9788H134.569L131.599 53.1748ZM143.103 58.5428V47.8508H144.379V49.8308H144.643C144.907 49.2588 145.34 48.7528 145.941 48.3128C146.543 47.8582 147.415 47.6308 148.559 47.6308C149.337 47.6308 150.048 47.7922 150.693 48.1148C151.339 48.4375 151.852 48.9288 152.233 49.5888C152.629 50.2342 152.827 51.0482 152.827 52.0308V58.5428H151.507V52.1188C151.507 50.9455 151.214 50.1022 150.627 49.5888C150.041 49.0755 149.256 48.8188 148.273 48.8188C147.173 48.8188 146.257 49.1855 145.523 49.9188C144.79 50.6375 144.423 51.7302 144.423 53.1968V58.5428H143.103ZM157.304 62.9428V61.7548H163.552C163.992 61.7548 164.212 61.5348 164.212 61.0948V56.6948H163.948C163.772 57.0468 163.523 57.3842 163.2 57.7068C162.892 58.0148 162.481 58.2715 161.968 58.4768C161.469 58.6675 160.839 58.7628 160.076 58.7628C159.313 58.7628 158.602 58.6015 157.942 58.2788C157.297 57.9562 156.776 57.4722 156.38 56.8268C155.999 56.1815 155.808 55.3675 155.808 54.3848V47.8508H157.128V54.2968C157.128 55.4555 157.421 56.2915 158.008 56.8048C158.595 57.3182 159.379 57.5748 160.362 57.5748C161.462 57.5748 162.379 57.2155 163.112 56.4968C163.845 55.7782 164.212 54.6855 164.212 53.2188V47.8508H165.532V61.2708C165.532 61.7988 165.385 62.2095 165.092 62.5028C164.813 62.7962 164.388 62.9428 163.816 62.9428H157.304ZM172.843 58.5428C172.271 58.5428 171.839 58.3962 171.545 58.1028C171.267 57.8095 171.127 57.3988 171.127 56.8708V49.0388H167.695V47.8508H171.127V43.8468H172.447V47.8508H176.187V49.0388H172.447V56.6948C172.447 57.1348 172.667 57.3548 173.107 57.3548H175.615V58.5428H172.843ZM178.693 58.5428V43.1428H180.013V49.7208H180.277C180.453 49.3688 180.695 49.0388 181.003 48.7308C181.326 48.4082 181.737 48.1515 182.235 47.9608C182.749 47.7555 183.387 47.6528 184.149 47.6528C184.927 47.6528 185.638 47.8142 186.283 48.1368C186.929 48.4595 187.442 48.9435 187.823 49.5888C188.219 50.2342 188.417 51.0482 188.417 52.0308V58.5428H187.097V52.1188C187.097 50.9455 186.804 50.1095 186.217 49.6108C185.631 49.0975 184.846 48.8408 183.863 48.8408C182.763 48.8408 181.847 49.2002 181.113 49.9188C180.38 50.6375 180.013 51.7302 180.013 53.1968V58.5428H178.693ZM191.724 58.5428V47.8508H193.044V58.5428H191.724ZM192.384 46.0028C192.061 46.0028 191.79 45.8928 191.57 45.6728C191.35 45.4528 191.24 45.1815 191.24 44.8588C191.24 44.5215 191.35 44.2502 191.57 44.0448C191.79 43.8248 192.061 43.7148 192.384 43.7148C192.721 43.7148 192.993 43.8248 193.198 44.0448C193.418 44.2502 193.528 44.5215 193.528 44.8588C193.528 45.1815 193.418 45.4528 193.198 45.6728C192.993 45.8928 192.721 46.0028 192.384 46.0028ZM196.483 58.5428V47.8508H197.759V49.8308H198.023C198.287 49.2588 198.72 48.7528 199.321 48.3128C199.923 47.8582 200.795 47.6308 201.939 47.6308C202.717 47.6308 203.428 47.7922 204.073 48.1148C204.719 48.4375 205.232 48.9288 205.613 49.5888C206.009 50.2342 206.207 51.0482 206.207 52.0308V58.5428H204.887V52.1188C204.887 50.9455 204.594 50.1022 204.007 49.5888C203.421 49.0755 202.636 48.8188 201.653 48.8188C200.553 48.8188 199.637 49.1855 198.903 49.9188C198.17 50.6375 197.803 51.7302 197.803 53.1968V58.5428H196.483ZM208.986 53.2408V52.9768C208.986 51.8475 209.213 50.8795 209.668 50.0728C210.137 49.2662 210.761 48.6428 211.538 48.2028C212.315 47.7628 213.181 47.5428 214.134 47.5428C215.307 47.5428 216.217 47.7775 216.862 48.2468C217.522 48.7015 218.006 49.2222 218.314 49.8088H218.578V47.8508H219.81V61.2708C219.81 61.7988 219.671 62.2095 219.392 62.5028C219.113 62.7962 218.688 62.9428 218.116 62.9428H210.812V61.7548H217.852C218.307 61.7548 218.534 61.5348 218.534 61.0948V56.4968H218.27C218.079 56.8488 217.808 57.1935 217.456 57.5308C217.119 57.8682 216.679 58.1468 216.136 58.3668C215.593 58.5722 214.926 58.6748 214.134 58.6748C213.181 58.6748 212.308 58.4548 211.516 58.0148C210.739 57.5748 210.123 56.9515 209.668 56.1448C209.213 55.3235 208.986 54.3555 208.986 53.2408ZM214.442 57.4868C215.659 57.4868 216.642 57.1055 217.39 56.3428C218.153 55.5802 218.534 54.5315 218.534 53.1968V53.0208C218.534 51.6715 218.153 50.6228 217.39 49.8748C216.642 49.1122 215.659 48.7308 214.442 48.7308C213.239 48.7308 212.257 49.1122 211.494 49.8748C210.731 50.6228 210.35 51.6715 210.35 53.0208V53.1968C210.35 54.5315 210.731 55.5802 211.494 56.3428C212.257 57.1055 213.239 57.4868 214.442 57.4868ZM223.87 58.8508C223.504 58.8508 223.203 58.7335 222.968 58.4988C222.734 58.2642 222.616 57.9635 222.616 57.5968C222.616 57.2302 222.734 56.9295 222.968 56.6948C223.203 56.4602 223.504 56.3428 223.87 56.3428C224.237 56.3428 224.538 56.4602 224.772 56.6948C225.007 56.9295 225.124 57.2302 225.124 57.5968C225.124 57.9635 225.007 58.2642 224.772 58.4988C224.538 58.7335 224.237 58.8508 223.87 58.8508ZM228.586 58.8508C228.22 58.8508 227.919 58.7335 227.684 58.4988C227.45 58.2642 227.332 57.9635 227.332 57.5968C227.332 57.2302 227.45 56.9295 227.684 56.6948C227.919 56.4602 228.22 56.3428 228.586 56.3428C228.953 56.3428 229.254 56.4602 229.488 56.6948C229.723 56.9295 229.84 57.2302 229.84 57.5968C229.84 57.9635 229.723 58.2642 229.488 58.4988C229.254 58.7335 228.953 58.8508 228.586 58.8508ZM233.303 58.8508C232.936 58.8508 232.635 58.7335 232.401 58.4988C232.166 58.2642 232.049 57.9635 232.049 57.5968C232.049 57.2302 232.166 56.9295 232.401 56.6948C232.635 56.4602 232.936 56.3428 233.303 56.3428C233.669 56.3428 233.97 56.4602 234.205 56.6948C234.439 56.9295 234.557 57.2302 234.557 57.5968C234.557 57.9635 234.439 58.2642 234.205 58.4988C233.97 58.7335 233.669 58.8508 233.303 58.8508Z" fill="#8B9FBC"/>
<defs>
<filter id="filter0_b_487_102" x="11.0569" y="4.31433" width="285.941" height="104" filterUnits="userSpaceOnUse" color-interpolation-filters="sRGB">
<feFlood flood-opacity="0" result="BackgroundImageFix"/>
<feGaussianBlur in="BackgroundImageFix" stdDeviation="10"/>
<feComposite in2="SourceAlpha" operator="in" result="effect1_backgroundBlur_487_102"/>
<feBlend mode="normal" in="SourceGraphic" in2="effect1_backgroundBlur_487_102" result="shape"/>
</filter>
<filter id="filter1_b_487_102" x="1" y="-3" width="285.941" height="104" filterUnits="userSpaceOnUse" color-interpolation-filters="sRGB">
<feFlood flood-opacity="0" result="BackgroundImageFix"/>
<feGaussianBlur in="BackgroundImageFix" stdDeviation="10"/>
<feComposite in2="SourceAlpha" operator="in" result="effect1_backgroundBlur_487_102"/>
<feBlend mode="normal" in="SourceGraphic" in2="effect1_backgroundBlur_487_102" result="shape"/>
</filter>
</defs>
</svg>
