<svg xmlns="http://www.w3.org/2000/svg" width="58" height="58" viewBox="0 0 58 58" fill="none">
<circle cx="29" cy="29" r="28" stroke="#3FD0FF" stroke-width="2"/>
<path d="M33.0282 18.7396C34.1854 18.7396 35.2953 18.2363 36.1136 17.3405C36.9319 16.4447 37.3916 15.2297 37.3916 13.9628H39.4055C39.4055 15.2297 39.8652 16.4447 40.6835 17.3405C41.5018 18.2363 42.6117 18.7396 43.7689 18.7396V20.9443C42.6117 20.9443 41.5018 21.4475 40.6835 22.3433C39.8652 23.2392 39.4055 24.4542 39.4055 25.7211H37.3916C37.3916 24.4542 36.9319 23.2392 36.1136 22.3433C35.2953 21.4475 34.1854 20.9443 33.0282 20.9443V18.7396ZM18.2596 21.3117C18.2596 20.5321 18.5426 19.7844 19.0461 19.2331C19.5497 18.6818 20.2327 18.3721 20.9448 18.3721H30.343V15.4326H20.9448C19.5205 15.4326 18.1545 16.052 17.1474 17.1545C16.1403 18.2571 15.5745 19.7525 15.5745 21.3117V36.0096C15.5745 37.5688 16.1403 39.0642 17.1474 40.1667C18.1545 41.2693 19.5205 41.8887 20.9448 41.8887H37.0559C38.4803 41.8887 39.8462 41.2693 40.8534 40.1667C41.8605 39.0642 42.4263 37.5688 42.4263 36.0096V28.6606H39.7411V36.0096C39.7411 36.7892 39.4582 37.5369 38.9547 38.0881C38.4511 38.6394 37.7681 38.9491 37.0559 38.9491H20.9448C20.2327 38.9491 19.5497 38.6394 19.0461 38.0881C18.5426 37.5369 18.2596 36.7892 18.2596 36.0096V21.3117Z" fill="#3FD0FF"/>
</svg>