<svg width="58" height="58" viewBox="0 0 58 58" fill="none" xmlns="http://www.w3.org/2000/svg">
<circle cx="29" cy="29" r="28" stroke="#3FD0FF" stroke-width="2"/>
<path d="M39.9375 13.243C41.2139 13.243 42.4379 13.75 43.3405 14.6525C44.243 15.5551 44.75 16.7791 44.75 18.0555V39.9305C44.75 41.2069 44.243 42.4309 43.3405 43.3334C42.4379 44.236 41.2139 44.743 39.9375 44.743H18.0625C17.4305 44.743 16.8047 44.6185 16.2208 44.3767C15.637 44.1348 15.1064 43.7803 14.6595 43.3334C14.2127 42.8866 13.8582 42.356 13.6163 41.7722C13.3745 41.1883 13.25 40.5625 13.25 39.9305V18.0555C13.25 16.7791 13.757 15.5551 14.6595 14.6525C15.5621 13.75 16.7861 13.243 18.0625 13.243H39.9375ZM39.9375 15.868H18.0625C16.855 15.868 15.875 16.848 15.875 18.0555V39.9305C15.875 41.138 16.855 42.118 18.0625 42.118H39.9375C41.145 42.118 42.125 41.138 42.125 39.9305V18.0555C42.125 16.848 41.145 15.868 39.9375 15.868ZM21.5625 23.75C22.2275 23.75 22.7753 24.2417 22.8628 24.8805L22.875 25.0572V36.4445C22.8745 36.6164 22.8402 36.7865 22.774 36.9452C22.7078 37.1038 22.611 37.2478 22.4891 37.3691C22.3673 37.4903 22.2227 37.5863 22.0637 37.6517C21.9047 37.7171 21.7344 37.7505 21.5625 37.75C21.246 37.7505 20.94 37.6365 20.701 37.4291C20.462 37.2216 20.3062 36.9347 20.2622 36.6212L20.25 36.4427V25.0555C20.25 24.3345 20.838 23.75 21.5625 23.75ZM36.4375 20.25C37.1025 20.25 37.652 20.7312 37.7378 21.3525L37.75 21.5275V36.4742C37.7477 36.6443 37.712 36.8123 37.6448 36.9685C37.5776 37.1248 37.4802 37.2662 37.3584 37.3849C37.2365 37.5035 37.0924 37.5969 36.9344 37.6599C36.7764 37.7229 36.6076 37.7541 36.4375 37.7517C36.1242 37.755 35.8202 37.6451 35.5813 37.4422C35.3425 37.2394 35.1848 36.9572 35.1372 36.6475L35.125 36.4742V21.5257C35.1273 21.3557 35.163 21.1877 35.2302 21.0315C35.2974 20.8752 35.3948 20.7338 35.5166 20.6151C35.6385 20.4965 35.7826 20.403 35.9406 20.3401C36.0986 20.2771 36.2674 20.2477 36.4375 20.25ZM28.9563 28.9947C29.2648 28.9904 29.5645 29.0979 29.8 29.2973C30.0355 29.4967 30.1908 29.7747 30.2372 30.0797L30.2513 30.2547L30.3125 36.462C30.3139 36.8002 30.1811 37.1252 29.9433 37.3656C29.7054 37.6061 29.382 37.7424 29.0437 37.7447C28.7353 37.7487 28.4358 37.6411 28.2004 37.4418C27.965 37.2424 27.8096 36.9647 27.7628 36.6597L27.7487 36.4865L27.6875 30.2792C27.6856 29.9407 27.8182 29.6153 28.0561 29.3745C28.294 29.1336 28.6177 28.9971 28.9563 28.9947Z" fill="#3FD0FF"/>
</svg>
