 <svg
                    width="58"
                    height="58"
                    viewBox="0 0 58 58"
                    fill="none"
                    xmlns="http://www.w3.org/2000/svg"
                  >
                    <circle
                      cx="29"
                      cy="29"
                      r="28"
                      stroke="#CCEAFF"
                      stroke-width="2"
                    />
                    <path
                      d="M18.9192 14.9639C17.605 14.9639 16.3446 15.4859 15.4153 16.4153C14.4859 17.3446 13.9639 18.605 13.9639 19.9192V39.0799C13.9639 40.3942 14.4859 41.6546 15.4153 42.5839C16.3446 43.5132 17.605 44.0353 18.9192 44.0353H38.0799C39.3942 44.0353 40.6546 43.5132 41.5839 42.5839C42.5132 41.6546 43.0353 40.3942 43.0353 39.0799V19.9192C43.0353 18.605 42.5132 17.3446 41.5839 16.4153C40.6546 15.4859 39.3942 14.9639 38.0799 14.9639H18.9192ZM15.946 19.9192C15.946 19.1307 16.2593 18.3744 16.8168 17.8168C17.3744 17.2593 18.1307 16.946 18.9192 16.946H38.0799C38.8685 16.946 39.6247 17.2593 40.1823 17.8168C40.7399 18.3744 41.0532 19.1307 41.0532 19.9192V39.0799C41.0532 39.8685 40.7399 40.6247 40.1823 41.1823C39.6247 41.7399 38.8685 42.0532 38.0799 42.0532H18.9192C18.1307 42.0532 17.3744 41.7399 16.8168 41.1823C16.2593 40.6247 15.946 39.8685 15.946 39.0799V19.9192ZM17.9282 22.8924C17.9282 22.1915 18.2066 21.5193 18.7022 21.0237C19.1979 20.528 19.8701 20.2496 20.571 20.2496H36.4282C37.1291 20.2496 37.8013 20.528 38.2969 21.0237C38.7926 21.5193 39.071 22.1915 39.071 22.8924V25.5353C39.071 26.2362 38.7926 26.9084 38.2969 27.4041C37.8013 27.8997 37.1291 28.1782 36.4282 28.1782H20.571C19.8701 28.1782 19.1979 27.8997 18.7022 27.4041C18.2066 26.9084 17.9282 26.2362 17.9282 25.5353V22.8924ZM20.571 22.2317C20.3958 22.2317 20.2277 22.3013 20.1038 22.4252C19.9799 22.5492 19.9103 22.7172 19.9103 22.8924V25.5353C19.9103 25.7105 19.9799 25.8786 20.1038 26.0025C20.2277 26.1264 20.3958 26.196 20.571 26.196H36.4282C36.6034 26.196 36.7714 26.1264 36.8953 26.0025C37.0193 25.8786 37.0889 25.7105 37.0889 25.5353V22.8924C37.0889 22.7172 37.0193 22.5492 36.8953 22.4252C36.7714 22.3013 36.6034 22.2317 36.4282 22.2317H20.571ZM17.9282 31.8121C17.9282 31.5492 18.0326 31.2972 18.2184 31.1113C18.4043 30.9254 18.6564 30.821 18.9192 30.821H26.1871C26.4499 30.821 26.702 30.9254 26.8879 31.1113C27.0737 31.2972 27.1782 31.5492 27.1782 31.8121C27.1782 32.0749 27.0737 32.327 26.8879 32.5129C26.702 32.6987 26.4499 32.8032 26.1871 32.8032H18.9192C18.6564 32.8032 18.4043 32.6987 18.2184 32.5129C18.0326 32.327 17.9282 32.0749 17.9282 31.8121ZM18.9192 35.7764C18.6564 35.7764 18.4043 35.8808 18.2184 36.0666C18.0326 36.2525 17.9282 36.5046 17.9282 36.7674C17.9282 37.0303 18.0326 37.2824 18.2184 37.4682C18.4043 37.6541 18.6564 37.7585 18.9192 37.7585H26.1871C26.4499 37.7585 26.702 37.6541 26.8879 37.4682C27.0737 37.2824 27.1782 37.0303 27.1782 36.7674C27.1782 36.5046 27.0737 36.2525 26.8879 36.0666C26.702 35.8808 26.4499 35.7764 26.1871 35.7764H18.9192ZM30.4817 32.4728C30.4817 31.1963 31.5177 30.1603 32.7942 30.1603H36.7585C38.035 30.1603 39.071 31.1963 39.071 32.4728V36.4371C39.071 37.0504 38.8274 37.6386 38.3937 38.0723C37.96 38.5059 37.3718 38.7496 36.7585 38.7496H32.7942C32.1809 38.7496 31.5927 38.5059 31.159 38.0723C30.7254 37.6386 30.4817 37.0504 30.4817 36.4371V32.4728ZM32.7942 32.1424C32.7066 32.1424 32.6226 32.1772 32.5606 32.2392C32.4987 32.3012 32.4639 32.3852 32.4639 32.4728V36.4371C32.4639 36.6194 32.6119 36.7674 32.7942 36.7674H36.7585C36.8461 36.7674 36.9302 36.7326 36.9921 36.6707C37.0541 36.6087 37.0889 36.5247 37.0889 36.4371V32.4728C37.0889 32.3852 37.0541 32.3012 36.9921 32.2392C36.9302 32.1772 36.8461 32.1424 36.7585 32.1424H32.7942Z"
                      fill="#CCEAFF"
                    />
                  </svg>