<svg width="58" height="58" viewBox="0 0 58 58" fill="none" xmlns="http://www.w3.org/2000/svg">
<circle cx="29" cy="29" r="28" stroke="#3FD0FF" stroke-width="2"/>
<path d="M18.9197 14.9643C17.6055 14.9643 16.3451 15.4864 15.4157 16.4157C14.4864 17.345 13.9644 18.6054 13.9644 19.9196V39.0804C13.9644 40.3946 14.4864 41.655 15.4157 42.5843C16.3451 43.5136 17.6055 44.0357 18.9197 44.0357H38.0804C39.3947 44.0357 40.6551 43.5136 41.5844 42.5843C42.5137 41.655 43.0358 40.3946 43.0358 39.0804V19.9196C43.0358 18.6054 42.5137 17.345 41.5844 16.4157C40.6551 15.4864 39.3947 14.9643 38.0804 14.9643H18.9197ZM15.9465 19.9196C15.9465 19.1311 16.2597 18.3749 16.8173 17.8173C17.3749 17.2597 18.1312 16.9464 18.9197 16.9464H38.0804C38.869 16.9464 39.6252 17.2597 40.1828 17.8173C40.7404 18.3749 41.0536 19.1311 41.0536 19.9196V39.0804C41.0536 39.8689 40.7404 40.6252 40.1828 41.1827C39.6252 41.7403 38.869 42.0536 38.0804 42.0536H18.9197C18.1312 42.0536 17.3749 41.7403 16.8173 41.1827C16.2597 40.6252 15.9465 39.8689 15.9465 39.0804V19.9196ZM17.9286 22.8929C17.9286 22.1919 18.2071 21.5197 18.7027 21.0241C19.1983 20.5284 19.8706 20.25 20.5715 20.25H36.4286C37.1296 20.25 37.8018 20.5284 38.2974 21.0241C38.7931 21.5197 39.0715 22.1919 39.0715 22.8929V25.5357C39.0715 26.2366 38.7931 26.9089 38.2974 27.4045C37.8018 27.9001 37.1296 28.1786 36.4286 28.1786H20.5715C19.8706 28.1786 19.1983 27.9001 18.7027 27.4045C18.2071 26.9089 17.9286 26.2366 17.9286 25.5357V22.8929ZM20.5715 22.2321C20.3963 22.2321 20.2282 22.3018 20.1043 22.4257C19.9804 22.5496 19.9108 22.7176 19.9108 22.8929V25.5357C19.9108 25.7109 19.9804 25.879 20.1043 26.0029C20.2282 26.1268 20.3963 26.1964 20.5715 26.1964H36.4286C36.6039 26.1964 36.7719 26.1268 36.8958 26.0029C37.0197 25.879 37.0894 25.7109 37.0894 25.5357V22.8929C37.0894 22.7176 37.0197 22.5496 36.8958 22.4257C36.7719 22.3018 36.6039 22.2321 36.4286 22.2321H20.5715ZM17.9286 31.8125C17.9286 31.5497 18.0331 31.2976 18.2189 31.1117C18.4048 30.9258 18.6569 30.8214 18.9197 30.8214H26.1876C26.4504 30.8214 26.7025 30.9258 26.8884 31.1117C27.0742 31.2976 27.1786 31.5497 27.1786 31.8125C27.1786 32.0753 27.0742 32.3274 26.8884 32.5133C26.7025 32.6992 26.4504 32.8036 26.1876 32.8036H18.9197C18.6569 32.8036 18.4048 32.6992 18.2189 32.5133C18.0331 32.3274 17.9286 32.0753 17.9286 31.8125ZM18.9197 35.7768C18.6569 35.7768 18.4048 35.8812 18.2189 36.0671C18.0331 36.2529 17.9286 36.505 17.9286 36.7679C17.9286 37.0307 18.0331 37.2828 18.2189 37.4687C18.4048 37.6545 18.6569 37.7589 18.9197 37.7589H26.1876C26.4504 37.7589 26.7025 37.6545 26.8884 37.4687C27.0742 37.2828 27.1786 37.0307 27.1786 36.7679C27.1786 36.505 27.0742 36.2529 26.8884 36.0671C26.7025 35.8812 26.4504 35.7768 26.1876 35.7768H18.9197ZM30.4822 32.4732C30.4822 31.1967 31.5182 30.1607 32.7947 30.1607H36.759C38.0355 30.1607 39.0715 31.1967 39.0715 32.4732V36.4375C39.0715 37.0508 38.8279 37.639 38.3942 38.0727C37.9605 38.5064 37.3723 38.75 36.759 38.75H32.7947C32.1814 38.75 31.5932 38.5064 31.1595 38.0727C30.7259 37.639 30.4822 37.0508 30.4822 36.4375V32.4732ZM32.7947 32.1429C32.7071 32.1429 32.6231 32.1777 32.5611 32.2396C32.4992 32.3016 32.4644 32.3856 32.4644 32.4732V36.4375C32.4644 36.6199 32.6124 36.7679 32.7947 36.7679H36.759C36.8466 36.7679 36.9306 36.7331 36.9926 36.6711C37.0546 36.6091 37.0894 36.5251 37.0894 36.4375V32.4732C37.0894 32.3856 37.0546 32.3016 36.9926 32.2396C36.9306 32.1777 36.8466 32.1429 36.759 32.1429H32.7947Z" fill="#3FD0FF"/>
</svg>
