<svg
                    width="58"
                    height="58"
                    viewBox="0 0 58 58"
                    fill="none"
                    xmlns="http://www.w3.org/2000/svg"
                  >
                    <circle
                      cx="29"
                      cy="29"
                      r="28"
                      stroke="#CCEAFF"
                      stroke-width="2"
                    />
                    <path
                      d="M33.0279 18.7397C34.1852 18.7397 35.295 18.2364 36.1133 17.3406C36.9316 16.4448 37.3913 15.2298 37.3913 13.9629H39.4052C39.4052 15.2298 39.865 16.4448 40.6833 17.3406C41.5016 18.2364 42.6114 18.7397 43.7687 18.7397V20.9444C42.6114 20.9444 41.5016 21.4476 40.6833 22.3435C39.865 23.2393 39.4052 24.4543 39.4052 25.7212H37.3913C37.3913 24.4543 36.9316 23.2393 36.1133 22.3435C35.295 21.4476 34.1852 20.9444 33.0279 20.9444V18.7397ZM18.2594 21.3118C18.2594 20.5322 18.5423 19.7845 19.0459 19.2332C19.5494 18.682 20.2324 18.3722 20.9446 18.3722H30.3427V15.4327H20.9446C19.5203 15.4327 18.1543 16.0521 17.1472 17.1546C16.14 18.2572 15.5742 19.7526 15.5742 21.3118V36.0097C15.5742 37.5689 16.14 39.0643 17.1472 40.1669C18.1543 41.2694 19.5203 41.8888 20.9446 41.8888H37.0557C38.48 41.8888 39.846 41.2694 40.8531 40.1669C41.8603 39.0643 42.4261 37.5689 42.4261 36.0097V28.6607H39.7409V36.0097C39.7409 36.7893 39.458 37.537 38.9544 38.0883C38.4508 38.6395 37.7679 38.9492 37.0557 38.9492H20.9446C20.2324 38.9492 19.5494 38.6395 19.0459 38.0883C18.5423 37.537 18.2594 36.7893 18.2594 36.0097V21.3118Z"
                      fill="#CCEAFF"
                    />
                  </svg>