<svg
                    width="58"
                    height="58"
                    viewBox="0 0 58 58"
                    fill="none"
                    xmlns="http://www.w3.org/2000/svg"
                  >
                    <circle
                      cx="29"
                      cy="29"
                      r="28"
                      stroke="#CCEAFF"
                      stroke-width="2"
                    />
                    <path
                      d="M39.9375 13.2432C41.2139 13.2432 42.4379 13.7502 43.3405 14.6527C44.243 15.5552 44.75 16.7793 44.75 18.0557V39.9307C44.75 41.207 44.243 42.4311 43.3405 43.3336C42.4379 44.2361 41.2139 44.7432 39.9375 44.7432H18.0625C17.4305 44.7432 16.8047 44.6187 16.2208 44.3768C15.637 44.135 15.1064 43.7805 14.6595 43.3336C14.2127 42.8867 13.8582 42.3562 13.6163 41.7723C13.3745 41.1884 13.25 40.5627 13.25 39.9307V18.0557C13.25 16.7793 13.757 15.5552 14.6595 14.6527C15.5621 13.7502 16.7861 13.2432 18.0625 13.2432H39.9375ZM39.9375 15.8682H18.0625C16.855 15.8682 15.875 16.8482 15.875 18.0557V39.9307C15.875 41.1382 16.855 42.1182 18.0625 42.1182H39.9375C41.145 42.1182 42.125 41.1382 42.125 39.9307V18.0557C42.125 16.8482 41.145 15.8682 39.9375 15.8682ZM21.5625 23.7502C22.2275 23.7502 22.7753 24.2419 22.8628 24.8807L22.875 25.0574V36.4447C22.8745 36.6166 22.8402 36.7867 22.774 36.9453C22.7078 37.104 22.611 37.248 22.4891 37.3692C22.3673 37.4905 22.2227 37.5865 22.0637 37.6519C21.9047 37.7172 21.7344 37.7506 21.5625 37.7502C21.246 37.7507 20.94 37.6367 20.701 37.4292C20.4621 37.2218 20.3062 36.9348 20.2622 36.6214L20.25 36.4429V25.0557C20.25 24.3347 20.838 23.7502 21.5625 23.7502ZM36.4375 20.2502C37.1025 20.2502 37.652 20.7314 37.7378 21.3527L37.75 21.5277V36.4744C37.7477 36.6445 37.712 36.8124 37.6448 36.9687C37.5776 37.1249 37.4802 37.2664 37.3584 37.385C37.2365 37.5037 37.0924 37.5971 36.9344 37.6601C36.7764 37.723 36.6076 37.7542 36.4375 37.7519C36.1242 37.7551 35.8202 37.6452 35.5813 37.4424C35.3425 37.2396 35.1848 36.9574 35.1372 36.6477L35.125 36.4744V21.5259C35.1273 21.3558 35.163 21.1879 35.2302 21.0317C35.2974 20.8754 35.3948 20.7339 35.5166 20.6153C35.6385 20.4967 35.7826 20.4032 35.9406 20.3403C36.0986 20.2773 36.2674 20.2478 36.4375 20.2502ZM28.9563 28.9949C29.2648 28.9905 29.5645 29.098 29.8 29.2975C30.0355 29.4969 30.1908 29.7748 30.2372 30.0799L30.2513 30.2549L30.3125 36.4622C30.3139 36.8004 30.1811 37.1253 29.9433 37.3658C29.7054 37.6063 29.382 37.7426 29.0437 37.7449C28.7353 37.7489 28.4358 37.6413 28.2004 37.4419C27.965 37.2426 27.8096 36.9648 27.7628 36.6599L27.7487 36.4867L27.6875 30.2794C27.6856 29.9409 27.8182 29.6155 28.0561 29.3746C28.294 29.1338 28.6177 28.9972 28.9563 28.9949Z"
                      fill="#CCEAFF"
                    />
                  </svg>