<svg xmlns="http://www.w3.org/2000/svg" width="45" height="30" viewBox="0 0 45 30" fill="none">
  <path d="M25.6127 7.03352C26.3782 6.28811 26.8539 5.25859 26.8539 4.12214C26.8539 1.84619 24.9511 0.000976562 22.604 0.000976562C21.1201 0.000976562 19.8159 0.740285 19.0566 1.8584C18.855 2.05392 1.93712 22.2748 1.7796 22.5069C1.01405 23.2524 0.53833 24.2819 0.53833 25.4183C0.53833 27.6943 2.4412 29.5395 4.78827 29.5395C6.27213 29.5395 7.57641 28.8002 8.33567 27.6821C8.53729 27.4866 25.4551 7.2657 25.6127 7.03352Z" fill="#3FD0FF"/>
  <path d="M35.4012 16.6259C36.17 15.8805 36.6457 14.851 36.6457 13.7115C36.6457 11.4355 34.7428 9.59033 32.3957 9.59033C30.9119 9.59033 29.6076 10.3296 28.8452 11.4477C28.6404 11.6463 19.7562 22.2654 19.5955 22.5006C18.8268 23.2461 18.3511 24.2756 18.3511 25.4151C18.3511 27.691 20.2539 29.5362 22.601 29.5362C24.0849 29.5362 25.3892 28.7969 26.1516 27.6788C26.3563 27.4802 35.2406 16.8612 35.4012 16.6259Z" fill="#3FD0FF"/>
  <path d="M44.674 4.12214C44.674 6.39809 42.7711 8.24329 40.424 8.24329C38.0769 8.24329 36.1741 6.39809 36.1741 4.12214C36.1741 1.84619 38.0769 0.000976562 40.424 0.000976562C42.7711 0.000976562 44.674 1.84619 44.674 4.12214Z" fill="#3FD0FF"/>
  <path d="M9.03528 4.12214C9.03528 6.39809 7.13242 8.24329 4.78534 8.24329C2.43827 8.24329 0.5354 6.39809 0.5354 4.12214C0.5354 1.84619 2.43827 0.000976562 4.78534 0.000976562C7.13242 0.000976562 9.03528 1.84619 9.03528 4.12214Z" fill="#3FD0FF"/>
</svg>