<svg xmlns="http://www.w3.org/2000/svg" width="45" height="30" viewBox="0 0 45 30" fill="none">
  <path d="M25.6126 7.03352C26.3782 6.28811 26.8539 5.25859 26.8539 4.12214C26.8539 1.84619 24.951 0.000976562 22.6039 0.000976562C21.1201 0.000976562 19.8158 0.740285 19.0565 1.8584C18.8549 2.05392 1.93706 22.2748 1.77954 22.5069C1.01399 23.2524 0.538269 24.2819 0.538269 25.4183C0.538269 27.6943 2.44113 29.5395 4.78821 29.5395C6.27207 29.5395 7.57635 28.8002 8.3356 27.6821C8.53723 27.4866 25.4551 7.2657 25.6126 7.03352Z" fill="#CCEAFF"/>
  <path d="M35.4013 16.6259C36.17 15.8805 36.6457 14.851 36.6457 13.7115C36.6457 11.4355 34.7429 9.59033 32.3958 9.59033C30.9119 9.59033 29.6077 10.3296 28.8452 11.4477C28.6405 11.6463 19.7562 22.2654 19.5956 22.5006C18.8269 23.2461 18.3511 24.2756 18.3511 25.4151C18.3511 27.691 20.254 29.5362 22.6011 29.5362C24.0849 29.5362 25.3892 28.7969 26.1516 27.6788C26.3564 27.4802 35.2406 16.8612 35.4013 16.6259Z" fill="#CCEAFF"/>
  <path d="M44.6738 4.12214C44.6738 6.39809 42.771 8.24329 40.4239 8.24329C38.0768 8.24329 36.174 6.39809 36.174 4.12214C36.174 1.84619 38.0768 0.000976562 40.4239 0.000976562C42.771 0.000976562 44.6738 1.84619 44.6738 4.12214Z" fill="#CCEAFF"/>
  <path d="M9.03522 4.12214C9.03522 6.39809 7.13236 8.24329 4.78528 8.24329C2.4382 8.24329 0.535339 6.39809 0.535339 4.12214C0.535339 1.84619 2.4382 0.000976562 4.78528 0.000976562C7.13236 0.000976562 9.03522 1.84619 9.03522 4.12214Z" fill="#CCEAFF"/>
</svg>