<svg xmlns="http://www.w3.org/2000/svg" width="43" height="32" viewBox="0 0 43 32" fill="none">
  <path d="M41.9115 15.5969L29.5681 3.33415C25.095 -1.1098 17.8138 -1.11296 13.3407 3.33415L0.997338 15.5969C0.981419 15.6127 0.968683 15.6317 0.955948 15.6507C0.946397 15.6633 0.936837 15.6728 0.927286 15.6855C0.911367 15.7076 0.901821 15.7298 0.89227 15.7519C0.885902 15.7614 0.879539 15.7709 0.876355 15.7835C0.866804 15.8088 0.860434 15.8341 0.854066 15.8594C0.854066 15.8689 0.847709 15.8784 0.844525 15.8911C0.838158 15.9227 0.834965 15.9575 0.834965 15.9923C0.834965 15.9955 0.834965 15.9986 0.834965 16.0018C0.834965 16.0397 0.838158 16.0745 0.844525 16.1125C0.844525 16.1251 0.854069 16.1378 0.857253 16.1504C0.863621 16.1726 0.869987 16.1947 0.876355 16.2169C0.882722 16.2358 0.895463 16.2517 0.90183 16.2675C0.911381 16.2833 0.917735 16.2991 0.927286 16.3149C0.949572 16.3465 0.971871 16.375 1.00052 16.4035L13.3438 28.6662C15.582 30.8898 18.5206 32 21.4592 32C24.3978 32 27.3363 30.8898 29.5745 28.6662L41.9178 16.4035C42.1407 16.1821 42.1407 15.8215 41.9178 15.6001L41.9115 15.5969ZM21.4528 19.8005L17.626 16.0018L21.4528 12.1999L25.2765 16.0018L21.4528 19.8005ZM14.1493 4.13754C18.0398 0.272409 24.2895 0.142728 28.3424 3.74533L16.8077 15.2016C16.6708 15.0782 16.5339 14.9612 16.3907 14.8441C14.3435 13.1678 11.7965 12.2537 9.10629 12.2537C7.80415 12.2537 6.53704 12.4688 5.34314 12.8799L14.1461 4.13438L14.1493 4.13754ZM28.7563 27.8597C24.8658 31.7248 18.6161 31.8577 14.5632 28.2519L26.0947 16.7957C26.0947 16.7957 26.0979 16.7988 26.101 16.802C26.2825 16.9633 26.4672 17.1183 26.655 17.267C26.6932 17.2986 26.7314 17.3271 26.7728 17.3587C26.9607 17.5042 27.1485 17.6402 27.3427 17.773C29.2307 19.054 31.4561 19.7436 33.793 19.7436C35.0951 19.7436 36.3622 19.5285 37.5561 19.1173L28.7531 27.8629L28.7563 27.8597Z" fill="#CCEAFF"/>
</svg>