<svg xmlns="http://www.w3.org/2000/svg" width="33" height="37" viewBox="0 0 33 37" fill="none">
  <path d="M32.8273 13.1851V23.6758C32.8273 30.9864 26.706 36.9191 19.1702 36.9191V26.4284C19.1702 19.1178 25.2915 13.1851 32.8273 13.1851Z" fill="#CCEAFF"/>
  <path d="M15.6999 14.7525V29.9418C7.30397 29.9418 0.486427 23.3308 0.486427 15.1893L0.486427 0C8.88235 0 15.6999 6.61096 15.6999 14.7525Z" fill="#CCEAFF"/>
  <path d="M29.3626 7.47791C30.0225 4.78763 28.3084 2.08798 25.5341 1.44806C22.7597 0.808133 19.9757 2.47026 19.3157 5.16055C18.6558 7.85083 20.3699 10.5505 23.1443 11.1904C25.9186 11.8303 28.7026 10.1682 29.3626 7.47791Z" fill="#CCEAFF"/>
</svg>