<svg xmlns="http://www.w3.org/2000/svg" width="35" height="36" viewBox="0 0 35 36" fill="none">
  <path d="M17.3753 0.000976562C7.93342 0.000976562 0.281006 7.4215 0.281006 16.5772H34.4696C34.4696 7.4215 26.814 0.000976562 17.3753 0.000976562Z" fill="#CCEAFF"/>
  <path d="M32.5985 18.4961C32.5985 26.6376 25.7683 33.2577 17.3756 33.2577C8.98279 33.2577 2.15263 26.6345 2.15263 18.4961H0.284424C0.284424 27.6366 7.95259 35.0724 17.3787 35.0724C26.8048 35.0724 34.473 27.6366 34.473 18.4961H32.6048H32.5985Z" fill="#CCEAFF"/>
  <path d="M17.376 30.9203C24.4424 30.9203 30.192 25.345 30.192 18.4927H28.3237C28.3237 24.346 23.4122 29.1056 17.3791 29.1056C11.346 29.1056 6.43449 24.3429 6.43449 18.4927H4.56628C4.56628 25.345 10.3158 30.9203 17.3823 30.9203H17.376Z" fill="#CCEAFF"/>
</svg>