<svg xmlns="http://www.w3.org/2000/svg" width="35" height="36" viewBox="0 0 35 36" fill="none">
  <path d="M17.3753 0.000976562C7.93342 0.000976562 0.281006 7.4215 0.281006 16.5772H34.4696C34.4696 7.4215 26.814 0.000976562 17.3753 0.000976562Z" fill="#3FD0FF"/>
  <path d="M32.5985 18.4961C32.5985 26.6376 25.7683 33.2577 17.3756 33.2577C8.98279 33.2577 2.15263 26.6345 2.15263 18.4961H0.284424C0.284424 27.6366 7.95259 35.0724 17.3787 35.0724C26.8048 35.0724 34.473 27.6366 34.473 18.4961H32.6048H32.5985Z" fill="#3FD0FF"/>
  <path d="M17.3758 30.9203C24.4423 30.9203 30.1918 25.345 30.1918 18.4927H28.3236C28.3236 24.346 23.4121 29.1056 17.379 29.1056C11.3459 29.1056 6.43437 24.3429 6.43437 18.4927H4.56616C4.56616 25.345 10.3157 30.9203 17.3821 30.9203H17.3758Z" fill="#3FD0FF"/>
</svg>