<svg xmlns="http://www.w3.org/2000/svg" width="33" height="37" viewBox="0 0 33 37" fill="none">
  <path d="M32.8271 13.1851V23.6758C32.8271 30.9864 26.7058 36.9191 19.1699 36.9191V26.4284C19.1699 19.1178 25.2912 13.1851 32.8271 13.1851Z" fill="#3FD0FF"/>
  <path d="M15.6997 14.7525V29.9418C7.30379 29.9418 0.486244 23.3308 0.486244 15.1893L0.486244 0C8.88216 0 15.6997 6.61096 15.6997 14.7525Z" fill="#3FD0FF"/>
  <path d="M29.3623 7.47791C30.0222 4.78763 28.3082 2.08798 25.5338 1.44806C22.7595 0.808133 19.9754 2.47026 19.3155 5.16055C18.6556 7.85083 20.3697 10.5505 23.144 11.1904C25.9184 11.8303 28.7024 10.1682 29.3623 7.47791Z" fill="#3FD0FF"/>
</svg>