<svg xmlns="http://www.w3.org/2000/svg" width="53" height="33" viewBox="0 0 53 33" fill="none">
  <path d="M19.8212 16.0845C19.8212 21.4674 22.6125 26.2301 26.8625 29.0834C31.0872 26.1843 33.847 21.4094 33.847 16.0082C33.847 10.607 31.1313 5.91455 26.9664 3.00928C22.6535 5.85651 19.8181 10.6528 19.8181 16.0845H19.8212Z" fill="#CCEAFF"/>
  <path d="M17.5475 16.0844C17.5475 10.2525 20.4239 5.05904 24.8723 1.76578C22.6134 0.641553 20.0553 0 17.3396 0C8.22225 0 0.828156 7.16697 0.828156 16.0111C0.828156 24.8553 8.2191 32.0222 17.3396 32.0222C20.008 32.0222 22.5252 31.4051 24.7557 30.3145C20.3766 27.0151 17.5475 21.8675 17.5475 16.0844Z" fill="#CCEAFF"/>
  <path d="M36.1226 31.808C27.1817 31.808 19.9104 24.754 19.9104 16.0871C19.9104 7.42015 27.1848 0.366211 36.1226 0.366211C45.0604 0.366211 52.3347 7.42015 52.3347 16.0871C52.3347 24.754 45.0604 31.808 36.1226 31.808ZM36.1226 2.56885C28.4355 2.56885 22.1851 8.63297 22.1851 16.0871C22.1851 23.5412 28.4387 29.6023 36.1226 29.6023C43.8065 29.6023 50.0633 23.5382 50.0633 16.0871C50.0633 8.63602 43.8097 2.56885 36.1226 2.56885Z" fill="#CCEAFF"/>
</svg>