<svg width="54" height="54" viewBox="0 0 54 54" fill="none" xmlns="http://www.w3.org/2000/svg">
<circle cx="27" cy="27" r="27" fill="#CCEAFF"/>
<path d="M41.0837 25.3327L30.06 18.3127C29.76 18.1209 29.4141 18.0132 29.0582 18.0007C28.7024 17.9883 28.3498 18.0716 28.0371 18.242C27.7245 18.4123 27.4633 18.6635 27.2809 18.9693C27.0984 19.275 27.0014 19.6242 27 19.9802V24.6427L17.06 18.3127C16.76 18.1209 16.4141 18.0132 16.0582 18.0007C15.7024 17.9883 15.3498 18.0716 15.0371 18.242C14.7245 18.4123 14.4633 18.6635 14.2809 18.9693C14.0984 19.275 14.0014 19.6242 14 19.9802V34.0202C14.0018 34.3761 14.0991 34.725 14.2816 35.0305C14.4641 35.336 14.7253 35.587 15.0378 35.7573C15.3503 35.9275 15.7027 36.0109 16.0584 35.9987C16.4141 35.9865 16.7599 35.8791 17.06 35.6877L27 29.3577V34.0202C27.0018 34.3761 27.0991 34.725 27.2816 35.0305C27.4641 35.336 27.7253 35.587 28.0378 35.7573C28.3503 35.9275 28.7027 36.0109 29.0584 35.9987C29.4141 35.9865 29.7599 35.8791 30.06 35.6877L41.0837 28.6677C41.3646 28.4894 41.5959 28.2431 41.7561 27.9516C41.9164 27.6601 42.0004 27.3328 42.0004 27.0002C42.0004 26.6675 41.9164 26.3403 41.7561 26.0488C41.5959 25.7573 41.3646 25.511 41.0837 25.3327ZM16 33.9927V20.0089L26.9775 27.0002L16 33.9927ZM29 33.9927V20.0089L39.9775 27.0002L29 33.9927Z" fill="#010113"/>
</svg>
