<svg width="54" height="54" viewBox="0 0 54 54" fill="none" xmlns="http://www.w3.org/2000/svg">
<path d="M54 27C54 41.9117 41.9117 54 27 54C12.0883 54 0 41.9117 0 27C0 12.0883 12.0883 0 27 0C41.9117 0 54 12.0883 54 27Z" fill="#CCEAFF"/>
<path d="M23.85 20.6999C23.5715 20.6999 23.3045 20.8105 23.1075 21.0074C22.9106 21.2044 22.8 21.4714 22.8 21.7499C22.8 22.0284 22.9106 22.2955 23.1075 22.4924C23.3045 22.6893 23.5715 22.7999 23.85 22.7999H30.15C30.4285 22.7999 30.6956 22.6893 30.8925 22.4924C31.0894 22.2955 31.2 22.0284 31.2 21.7499C31.2 21.4714 31.0894 21.2044 30.8925 21.0074C30.6956 20.8105 30.4285 20.6999 30.15 20.6999H23.85ZM14.4 30.1499C14.4 29.8714 14.5106 29.6044 14.7076 29.4074C14.9045 29.2105 15.1715 29.0999 15.45 29.0999H23.85C24.1285 29.0999 24.3956 29.2105 24.5925 29.4074C24.7894 29.6044 24.9 29.8714 24.9 30.1499C24.9 30.4284 24.7894 30.6955 24.5925 30.8924C24.3956 31.0893 24.1285 31.1999 23.85 31.1999H15.45C15.1715 31.1999 14.9045 31.0893 14.7076 30.8924C14.5106 30.6955 14.4 30.4284 14.4 30.1499ZM30.15 29.0999C29.8715 29.0999 29.6045 29.2105 29.4075 29.4074C29.2106 29.6044 29.1 29.8714 29.1 30.1499C29.1 30.4284 29.2106 30.6955 29.4075 30.8924C29.6045 31.0893 29.8715 31.1999 30.15 31.1999H38.55C38.8285 31.1999 39.0956 31.0893 39.2925 30.8924C39.4894 30.6955 39.6 30.4284 39.6 30.1499C39.6 29.8714 39.4894 29.6044 39.2925 29.4074C39.0956 29.2105 38.8285 29.0999 38.55 29.0999H30.15ZM36.7587 23.3165C36.2715 18.4382 32.9157 14.3999 27 14.3999C21.0843 14.3999 17.7327 18.4067 17.2413 23.3165L16.7142 23.327C13.0833 23.5286 10.2 26.624 10.2 30.4082C10.2 34.3247 13.287 37.4999 17.0922 37.4999H36.9078C40.713 37.4999 43.8 34.3247 43.8 30.4082C43.8 26.4917 40.713 23.3165 36.9078 23.3165H36.7587ZM19.3308 23.5265C19.7571 19.2614 22.5606 16.4999 27 16.4999C31.4268 16.4999 34.245 19.2824 34.6692 23.5265C34.7213 24.0445 34.9639 24.5247 35.35 24.8739C35.7361 25.2231 36.2381 25.4165 36.7587 25.4165H36.9078C39.5412 25.4165 41.7 27.6383 41.7 30.4082C41.7 33.1802 39.5412 35.3999 36.9078 35.3999H17.0922C14.4588 35.3999 12.3 33.1781 12.3 30.4082C12.3 27.6362 14.4588 25.4165 17.0922 25.4165H17.2413C17.7619 25.4165 18.264 25.2231 18.6501 24.8739C19.0361 24.5247 19.2788 24.0445 19.3308 23.5265Z" fill="#010113"/>
</svg>
