<svg xmlns="http://www.w3.org/2000/svg" width="54" height="54" viewBox="0 0 54 54" fill="none">
  <circle cx="27" cy="27" r="27" fill="#CCEAFF"/>
  <path d="M30.75 17.4474C31.8274 17.4474 32.8608 16.9788 33.6226 16.1448C34.3845 15.3107 34.8125 14.1795 34.8125 13H36.6875C36.6875 14.1795 37.1155 15.3107 37.8774 16.1448C38.6392 16.9788 39.6726 17.4474 40.75 17.4474V19.5C39.6726 19.5 38.6392 19.9686 37.8774 20.8026C37.1155 21.6366 36.6875 22.7679 36.6875 23.9474H34.8125C34.8125 22.7679 34.3845 21.6366 33.6226 20.8026C32.8608 19.9686 31.8274 19.5 30.75 19.5V17.4474ZM17 19.8421C17 19.1162 17.2634 18.4201 17.7322 17.9069C18.2011 17.3936 18.837 17.1053 19.5 17.1053H28.25V14.3684H19.5C18.1739 14.3684 16.9021 14.9451 15.9645 15.9716C15.0268 16.9981 14.5 18.3904 14.5 19.8421V33.5263C14.5 34.978 15.0268 36.3703 15.9645 37.3968C16.9021 38.4233 18.1739 39 19.5 39H34.5C35.8261 39 37.0979 38.4233 38.0355 37.3968C38.9732 36.3703 39.5 34.978 39.5 33.5263V26.6842H37V33.5263C37 34.2522 36.7366 34.9483 36.2678 35.4616C35.7989 35.9748 35.163 36.2632 34.5 36.2632H19.5C18.837 36.2632 18.2011 35.9748 17.7322 35.4616C17.2634 34.9483 17 34.2522 17 33.5263V19.8421Z" fill="#010113"/>
</svg>