<svg width="54" height="54" viewBox="0 0 54 54" fill="none" xmlns="http://www.w3.org/2000/svg">
<circle cx="26.999" cy="27" r="27" fill="#CCEAFF"/>
<g clip-path="url(#clip0_0_1)">
<path d="M26.0444 36.3887V29.0998H39.6666C40.006 29.0998 40.2966 28.9863 40.5026 28.7803C40.7086 28.5743 40.8222 28.2837 40.8222 27.9443V16.3332C40.8222 15.9938 40.7086 15.7032 40.5026 15.4972C40.2966 15.2912 40.006 15.1776 39.6666 15.1776H24.8889H24.7889V15.2776V18.3443H22.8778V13.2665H39.6666C41.4059 13.2665 42.7333 14.594 42.7333 16.3332V27.9443C42.7333 29.6835 41.4059 31.0109 39.6666 31.0109H28.0555H27.9555V31.1109V38.3998H20.9833H20.9479L20.9204 38.4221L14.4333 43.6736V38.4998V38.3998H14.3333H13.2778C11.5385 38.3998 10.2111 37.0724 10.2111 35.3332V23.7221C10.2111 21.9828 11.5385 20.6554 13.2778 20.6554H26.9V22.5665H13.2778C12.9384 22.5665 12.6478 22.6801 12.4418 22.8861C12.2358 23.0921 12.1222 23.3827 12.1222 23.7221V35.3332C12.1222 35.6726 12.2358 35.9632 12.4418 36.1692C12.6478 36.3752 12.9384 36.4887 13.2778 36.4887H16.3444V39.4498V39.6553L16.5061 39.5285L20.3845 36.4887H25.9444H26.0444V36.3887Z" fill="#010113" stroke="#CCEAFF" stroke-width="0.2"/>
<path d="M17.7111 32.3834H17.6418L17.6175 32.4483L17.0085 34.0723H14.6882L18.0973 24.8778H20.4923L24.0047 34.0723H21.686L21.077 32.4483L21.0526 32.3834H20.9833H17.7111ZM19.3896 27.386L19.2944 27.091L19.1993 27.386L18.1437 30.6582L18.1015 30.7889H18.2389H20.35H20.4873L20.4452 30.6582L19.3896 27.386Z" fill="#010113" stroke="#CCEAFF" stroke-width="0.2"/>
<path d="M29.5641 22.2391C29.9815 23.5343 30.5933 24.5354 31.3985 25.3406L31.5057 25.4478L31.3649 25.5041C30.412 25.8853 29.5443 25.9281 29.2111 25.9329V27.8438C30.3469 27.8262 31.8668 27.5105 33.2886 26.7996L33.3333 26.7772L33.378 26.7996C34.7955 27.5083 36.41 27.8245 37.4555 27.8437V25.931C37.4303 25.93 37.4006 25.9286 37.3668 25.9267C37.2477 25.92 37.077 25.9066 36.8698 25.8799C36.4558 25.8265 35.894 25.7196 35.3047 25.5053L35.1571 25.4516L35.2682 25.3406C36.5153 24.0934 37.4555 22.2192 37.4555 19.5002L29.5641 22.2391ZM29.5641 22.2391H31.5798" fill="#010113" stroke="#CCEAFF" stroke-width="0.2"/>
</g>
<defs>
<clipPath id="clip0_0_1">
<rect width="38" height="38" fill="white" transform="translate(8 10)"/>
</clipPath>
</defs>
</svg>
