<svg width="54" height="54" viewBox="0 0 54 54" fill="none" xmlns="http://www.w3.org/2000/svg">
<circle cx="26.998" cy="27" r="27" fill="#3FD0FF"/>
<path d="M41.0818 25.3327L30.058 18.3127C29.7581 18.1209 29.4121 18.0132 29.0563 18.0007C28.7004 17.9883 28.3478 18.0716 28.0352 18.242C27.7225 18.4123 27.4614 18.6635 27.2789 18.9693C27.0965 19.275 26.9995 19.6242 26.998 19.9802V24.6427L17.058 18.3127C16.7581 18.1209 16.4121 18.0132 16.0563 18.0007C15.7004 17.9883 15.3478 18.0716 15.0352 18.242C14.7225 18.4123 14.4614 18.6635 14.2789 18.9693C14.0965 19.275 13.9995 19.6242 13.998 19.9802V34.0202C13.9999 34.3761 14.0971 34.725 14.2797 35.0305C14.4622 35.336 14.7233 35.587 15.0358 35.7573C15.3483 35.9275 15.7008 36.0109 16.0564 35.9987C16.4121 35.9865 16.758 35.8791 17.058 35.6877L26.998 29.3577V34.0202C26.9999 34.3761 27.0971 34.725 27.2797 35.0305C27.4622 35.336 27.7233 35.587 28.0358 35.7573C28.3483 35.9275 28.7008 36.0109 29.0564 35.9987C29.4121 35.9865 29.758 35.8791 30.058 35.6877L41.0818 28.6677C41.3627 28.4894 41.5939 28.2431 41.7542 27.9516C41.9144 27.6601 41.9985 27.3328 41.9985 27.0002C41.9985 26.6675 41.9144 26.3403 41.7542 26.0488C41.5939 25.7573 41.3627 25.511 41.0818 25.3327ZM15.998 33.9927V20.0089L26.9755 27.0002L15.998 33.9927ZM28.998 33.9927V20.0089L39.9755 27.0002L28.998 33.9927Z" fill="white"/>
</svg>
