<svg xmlns="http://www.w3.org/2000/svg" width="54" height="54" viewBox="0 0 54 54" fill="none">
  <circle cx="26.999" cy="27" r="27" fill="#3FD0FF"/>
  <path d="M30.749 17.4474C31.8265 17.4474 32.8598 16.9788 33.6216 16.1448C34.3835 15.3107 34.8115 14.1795 34.8115 13H36.6865C36.6865 14.1795 37.1145 15.3107 37.8764 16.1448C38.6383 16.9788 39.6716 17.4474 40.749 17.4474V19.5C39.6716 19.5 38.6383 19.9686 37.8764 20.8026C37.1145 21.6366 36.6865 22.7679 36.6865 23.9474H34.8115C34.8115 22.7679 34.3835 21.6366 33.6216 20.8026C32.8598 19.9686 31.8265 19.5 30.749 19.5V17.4474ZM16.999 19.8421C16.999 19.1162 17.2624 18.4201 17.7313 17.9069C18.2001 17.3936 18.836 17.1053 19.499 17.1053H28.249V14.3684H19.499C18.1729 14.3684 16.9012 14.9451 15.9635 15.9716C15.0258 16.9981 14.499 18.3904 14.499 19.8421V33.5263C14.499 34.978 15.0258 36.3703 15.9635 37.3968C16.9012 38.4233 18.1729 39 19.499 39H34.499C35.8251 39 37.0969 38.4233 38.0346 37.3968C38.9722 36.3703 39.499 34.978 39.499 33.5263V26.6842H36.999V33.5263C36.999 34.2522 36.7356 34.9483 36.2668 35.4616C35.7979 35.9748 35.1621 36.2632 34.499 36.2632H19.499C18.836 36.2632 18.2001 35.9748 17.7313 35.4616C17.2624 34.9483 16.999 34.2522 16.999 33.5263V19.8421Z" fill="white"/>
</svg>