<svg width="54" height="54" viewBox="0 0 54 54" fill="none" xmlns="http://www.w3.org/2000/svg">
<circle cx="27" cy="27" r="27" fill="#CCEAFF"/>
<path d="M33.5037 20.4962C32.9059 19.8987 32.0953 19.563 31.2501 19.563C30.4049 19.563 29.5943 19.8987 28.9965 20.4962L28.5025 20.9892L30.0049 22.4916L30.4989 21.9986C30.6993 21.8051 30.9677 21.698 31.2463 21.7004C31.5249 21.7028 31.7914 21.8146 31.9884 22.0116C32.1853 22.2086 32.2971 22.475 32.2995 22.7536C32.3019 23.0322 32.1948 23.3006 32.0013 23.501L28.5025 26.9998L30.0049 28.5022L33.5037 25.0034C34.1012 24.4056 34.4369 23.595 34.4369 22.7498C34.4369 21.9046 34.1012 21.094 33.5037 20.4962ZM23.5013 32.001C23.3009 32.1945 23.0325 32.3016 22.7539 32.2992C22.4753 32.2968 22.2089 32.185 22.0119 31.9881C21.8149 31.7911 21.7031 31.5246 21.7007 31.246C21.6983 30.9674 21.8054 30.699 21.9989 30.4986L25.4977 26.9998L23.9954 25.4974L20.4965 28.9962C20.1921 29.2903 19.9493 29.642 19.7822 30.0309C19.6152 30.4198 19.5272 30.838 19.5236 31.2613C19.5199 31.6845 19.6005 32.1042 19.7608 32.496C19.9211 32.8877 20.1578 33.2436 20.457 33.5429C20.7563 33.8422 21.1122 34.0788 21.5039 34.2391C21.8957 34.3994 22.3154 34.48 22.7386 34.4764C23.1619 34.4727 23.5801 34.3847 23.969 34.2177C24.3579 34.0506 24.7096 33.8078 25.0037 33.5034L25.4977 33.0104L23.9954 31.508L23.5013 32.001ZM25.0037 20.4973C24.4001 19.9307 23.5997 19.6213 22.772 19.6343C21.9442 19.6474 21.154 19.9819 20.5686 20.5672C19.9831 21.1525 19.6484 21.9427 19.6351 22.7704C19.6219 23.5981 19.9312 24.3986 20.4976 25.0023L20.9906 25.4964L22.493 23.994L22 23.4999C21.8064 23.2995 21.6993 23.0312 21.7018 22.7526C21.7042 22.474 21.8159 22.2075 22.0129 22.0105C22.2099 21.8135 22.4764 21.7018 22.755 21.6993C23.0336 21.6969 23.302 21.804 23.5024 21.9976L27.0001 25.4974L28.5025 23.9951L25.0037 20.4973Z" fill="#010113"/>
<path d="M33.5035 28.9965L33.0105 28.5024L31.5081 30.0048L32.0011 30.4989C32.1947 30.6993 32.3018 30.9677 32.2993 31.2462C32.2969 31.5248 32.1852 31.7913 31.9882 31.9883C31.7912 32.1853 31.5247 32.2971 31.2461 32.2995C30.9675 32.3019 30.6991 32.1948 30.4987 32.0013L26.9999 28.5024L25.4976 30.0048L28.9964 33.5036C29.5975 34.0843 30.4027 34.4055 31.2385 34.3983C32.0742 34.391 32.8737 34.0558 33.4647 33.4648C34.0557 32.8738 34.3909 32.0743 34.3981 31.2386C34.4054 30.4028 34.0841 29.5977 33.5035 28.9965Z" fill="#010113"/>
<path d="M27 42.9373C26.8118 42.9375 26.627 42.8876 26.4645 42.7928L13.7145 35.3553C13.5541 35.2617 13.421 35.1277 13.3285 34.9666C13.2361 34.8056 13.1874 34.6231 13.1875 34.4373V19.5623C13.1874 19.3766 13.2361 19.1941 13.3285 19.033C13.421 18.872 13.5541 18.7379 13.7145 18.6443L26.4645 11.2068C26.627 11.112 26.8118 11.062 27 11.062C27.1882 11.062 27.373 11.112 27.5355 11.2068L40.2855 18.6443L39.2145 20.4803L27 13.3552L15.3125 20.1722V33.8275L27 40.6455L38.6875 33.8275V25.9373H40.8125V34.4373C40.8126 34.6231 40.7639 34.8056 40.6715 34.9666C40.579 35.1277 40.4459 35.2617 40.2855 35.3553L27.5355 42.7928C27.373 42.8876 27.1882 42.9375 27 42.9373Z" fill="#010113"/>
</svg>
