<svg width="54" height="54" viewBox="0 0 54 54" fill="none" xmlns="http://www.w3.org/2000/svg">
<path d="M53.998 27C53.998 41.9117 41.9097 54 26.998 54C12.0864 54 -0.00195312 41.9117 -0.00195312 27C-0.00195312 12.0883 12.0864 0 26.998 0C41.9097 0 53.998 12.0883 53.998 27Z" fill="#3FD0FF"/>
<path d="M23.848 20.6999C23.5695 20.6999 23.3024 20.8105 23.1055 21.0074C22.9086 21.2044 22.798 21.4714 22.798 21.7499C22.798 22.0284 22.9086 22.2955 23.1055 22.4924C23.3024 22.6893 23.5695 22.7999 23.848 22.7999H30.148C30.4265 22.7999 30.6935 22.6893 30.8905 22.4924C31.0874 22.2955 31.198 22.0284 31.198 21.7499C31.198 21.4714 31.0874 21.2044 30.8905 21.0074C30.6935 20.8105 30.4265 20.6999 30.148 20.6999H23.848ZM14.398 30.1499C14.398 29.8714 14.5086 29.6044 14.7055 29.4074C14.9024 29.2105 15.1695 29.0999 15.448 29.0999H23.848C24.1265 29.0999 24.3935 29.2105 24.5905 29.4074C24.7874 29.6044 24.898 29.8714 24.898 30.1499C24.898 30.4284 24.7874 30.6955 24.5905 30.8924C24.3935 31.0893 24.1265 31.1999 23.848 31.1999H15.448C15.1695 31.1999 14.9024 31.0893 14.7055 30.8924C14.5086 30.6955 14.398 30.4284 14.398 30.1499ZM30.148 29.0999C29.8695 29.0999 29.6024 29.2105 29.4055 29.4074C29.2086 29.6044 29.098 29.8714 29.098 30.1499C29.098 30.4284 29.2086 30.6955 29.4055 30.8924C29.6024 31.0893 29.8695 31.1999 30.148 31.1999H38.548C38.8265 31.1999 39.0935 31.0893 39.2905 30.8924C39.4874 30.6955 39.598 30.4284 39.598 30.1499C39.598 29.8714 39.4874 29.6044 39.2905 29.4074C39.0935 29.2105 38.8265 29.0999 38.548 29.0999H30.148ZM36.7567 23.3165C36.2695 18.4382 32.9137 14.3999 26.998 14.3999C21.0823 14.3999 17.7307 18.4067 17.2393 23.3165L16.7122 23.327C13.0813 23.5286 10.198 26.624 10.198 30.4082C10.198 34.3247 13.285 37.4999 17.0902 37.4999H36.9058C40.711 37.4999 43.798 34.3247 43.798 30.4082C43.798 26.4917 40.711 23.3165 36.9058 23.3165H36.7567ZM19.3288 23.5265C19.7551 19.2614 22.5586 16.4999 26.998 16.4999C31.4248 16.4999 34.243 19.2824 34.6672 23.5265C34.7193 24.0445 34.9619 24.5247 35.348 24.8739C35.734 25.2231 36.2361 25.4165 36.7567 25.4165H36.9058C39.5392 25.4165 41.698 27.6383 41.698 30.4082C41.698 33.1802 39.5392 35.3999 36.9058 35.3999H17.0902C14.4568 35.3999 12.298 33.1781 12.298 30.4082C12.298 27.6362 14.4568 25.4165 17.0902 25.4165H17.2393C17.7599 25.4165 18.2619 25.2231 18.648 24.8739C19.0341 24.5247 19.2767 24.0445 19.3288 23.5265Z" fill="white"/>
</svg>
