<svg width="200" height="60" viewBox="0 0 207 63" fill="none" xmlns="http://www.w3.org/2000/svg">
<path d="M15.9064 15.7534C8.00589 23.5746 7.22154 35.7752 13.5418 44.4954C14.0102 36.8662 19.3805 30.3593 26.9337 28.4563L26.9365 31.2542C20.59 33.1636 16.2199 38.9664 16.2267 45.6011C16.2274 46.3198 16.2826 47.0258 16.3819 47.7172C24.7013 55.5222 37.5438 55.8637 46.2299 48.7347C46.4424 47.733 46.5554 46.6961 46.5543 45.6317C46.5458 37.3542 39.7357 30.6126 31.3742 30.6041L30.0137 30.6028L30.0035 20.6773C28.9909 20.1792 28.2932 19.1483 28.2911 17.9546C28.2893 16.2759 29.6622 14.9168 31.358 14.9185C33.0539 14.9202 34.4295 16.2821 34.4313 17.9608C34.4325 19.1553 33.736 20.1839 32.7244 20.68L32.7319 27.9616C41.9619 28.6622 49.2665 36.3242 49.2752 45.6344C49.2752 45.6601 49.2727 45.6849 49.2727 45.7105C56.55 36.9578 56.0439 23.9824 47.763 15.7847C38.9586 7.0671 24.6955 7.05271 15.9064 15.7534ZM28.6405 42.535C28.6424 44.3421 27.1641 45.8055 25.3387 45.8036C23.5132 45.8018 22.032 44.3354 22.0301 42.5283C22.0282 40.7212 23.5065 39.2578 25.3319 39.2597C27.1574 39.2615 28.6386 40.7279 28.6405 42.535ZM40.9857 42.5483C40.9876 44.3554 39.5093 45.8188 37.6839 45.8169C35.8584 45.8151 34.3772 44.3487 34.3753 42.5416C34.3735 40.7345 35.8517 39.2711 37.6771 39.273C39.5026 39.2748 40.9838 40.7412 40.9857 42.5483Z" fill="#3FD0FF"/>
<path d="M83.6501 45.8163C80.1835 45.8163 77.4368 44.8563 75.4101 42.9363C73.3835 40.9897 72.3701 38.2163 72.3701 34.6163V27.8963C72.3701 24.2963 73.3835 21.5363 75.4101 19.6163C77.4368 17.6697 80.1835 16.6963 83.6501 16.6963C87.0901 16.6963 89.7435 17.643 91.6101 19.5363C93.5035 21.403 94.4501 23.9763 94.4501 27.2563V27.4963H89.2501V27.0963C89.2501 25.443 88.7835 24.083 87.8501 23.0163C86.9435 21.9497 85.5435 21.4163 83.6501 21.4163C81.7835 21.4163 80.3168 21.9897 79.2501 23.1363C78.1835 24.283 77.6501 25.843 77.6501 27.8163V34.6963C77.6501 36.643 78.1835 38.203 79.2501 39.3763C80.3168 40.523 81.7835 41.0963 83.6501 41.0963C85.5435 41.0963 86.9435 40.563 87.8501 39.4963C88.7835 38.403 89.2501 37.043 89.2501 35.4163V34.6963H94.4501V35.2563C94.4501 38.5363 93.5035 41.123 91.6101 43.0163C89.7435 44.883 87.0901 45.8163 83.6501 45.8163ZM98.9123 45.2563V17.2563H103.952V27.8563H104.672C104.886 27.4297 105.219 27.003 105.672 26.5763C106.126 26.1497 106.726 25.803 107.472 25.5363C108.246 25.243 109.219 25.0963 110.392 25.0963C111.939 25.0963 113.286 25.4563 114.432 26.1763C115.606 26.8697 116.512 27.843 117.152 29.0963C117.792 30.323 118.112 31.763 118.112 33.4163V45.2563H113.072V33.8163C113.072 32.323 112.699 31.203 111.952 30.4563C111.232 29.7097 110.192 29.3363 108.832 29.3363C107.286 29.3363 106.086 29.8563 105.232 30.8963C104.379 31.9097 103.952 33.3363 103.952 35.1763V45.2563H98.9123ZM129.721 45.8163C128.307 45.8163 127.041 45.5763 125.921 45.0963C124.801 44.5897 123.907 43.8697 123.241 42.9363C122.601 41.9763 122.281 40.8163 122.281 39.4563C122.281 38.0963 122.601 36.963 123.241 36.0563C123.907 35.123 124.814 34.4297 125.961 33.9763C127.134 33.4963 128.467 33.2563 129.961 33.2563H135.401V32.1363C135.401 31.203 135.107 30.443 134.521 29.8563C133.934 29.243 133.001 28.9363 131.721 28.9363C130.467 28.9363 129.534 29.2297 128.921 29.8163C128.307 30.3763 127.907 31.1097 127.721 32.0163L123.081 30.4563C123.401 29.443 123.907 28.523 124.601 27.6963C125.321 26.843 126.267 26.163 127.441 25.6563C128.641 25.123 130.094 24.8563 131.801 24.8563C134.414 24.8563 136.481 25.5097 138.001 26.8163C139.521 28.123 140.281 30.0163 140.281 32.4963V39.8963C140.281 40.6963 140.654 41.0963 141.401 41.0963H143.001V45.2563H139.641C138.654 45.2563 137.841 45.0163 137.201 44.5363C136.561 44.0563 136.241 43.4163 136.241 42.6163V42.5763H135.481C135.374 42.8963 135.134 43.323 134.761 43.8563C134.387 44.363 133.801 44.8163 133.001 45.2163C132.201 45.6163 131.107 45.8163 129.721 45.8163ZM130.601 41.7363C132.014 41.7363 133.161 41.3497 134.041 40.5763C134.947 39.7763 135.401 38.723 135.401 37.4163V37.0163H130.321C129.387 37.0163 128.654 37.2163 128.121 37.6163C127.587 38.0163 127.321 38.5763 127.321 39.2963C127.321 40.0163 127.601 40.603 128.161 41.0563C128.721 41.5097 129.534 41.7363 130.601 41.7363ZM152.84 45.2563C151.534 45.2563 150.467 44.8563 149.64 44.0563C148.84 43.2297 148.44 42.1363 148.44 40.7763V29.5763H143.48V25.4163H148.44V19.2563H153.48V25.4163H158.92V29.5763H153.48V39.8963C153.48 40.6963 153.854 41.0963 154.6 41.0963H158.44V45.2563H152.84ZM171.09 45.2563L178.45 17.2563H187.65L195.01 45.2563H189.57L188.05 39.0963H178.05L176.53 45.2563H171.09ZM179.29 34.2163H186.81L183.41 20.5763H182.69L179.29 34.2163ZM198.362 45.2563V17.2563H203.642V45.2563H198.362Z" fill="#010113"/>
</svg>