<svg xmlns="http://www.w3.org/2000/svg" width="54" height="38" viewBox="0 0 54 38" fill="none" ><g clip-path="url(#clip0_839_1697)"><path d="M45.6204 6.69958C45.157 6.37015 44.5162 6.3606 44.0376 6.72067C43.4459 7.16578 43.3273 8.00699 43.7732 8.59905C46.5388 12.2782 48.1578 15.0153 49.0518 16.7254C45.7681 16.3013 42.5618 15.8918 38.9194 16.2831C38.1836 16.3623 37.418 17.0655 37.328 17.8008C37.1429 19.3091 38.8486 19.4198 39.5844 19.3406C43.4415 18.9257 46.6265 19.1057 50.1249 19.5722L51.1142 19.7038C51.5751 19.7641 52.0339 19.5815 52.3268 19.2213C52.6204 18.8609 52.9952 18.2845 52.672 17.652C52.5945 17.501 51.1329 13.928 45.9143 6.98759C45.8293 6.87447 45.7291 6.77842 45.62 6.70069L45.6204 6.69958Z" fill="#8B9FBC"/><path d="M16.5825 11.6995C29.9083 6.31645 41.7874 10.1404 49.4879 14.8701C50.1184 15.2575 50.413 16.7681 50.0258 17.4C49.6394 18.0315 48.8139 18.2284 48.1826 17.8413C41.0085 13.434 29.8771 9.22279 17.5875 14.1872C5.29782 19.1517 5.68041 26.8384 5.73218 27.1546C5.85183 27.8812 5.59366 28.5424 4.8694 28.6683C4.14513 28.7941 3.85098 28.1362 3.71778 27.4122C3.64458 27.0113 1.69034 17.7152 16.5825 11.6995Z" fill="#8B9FBC"/></g><defs> <clipPath id="clip0_839_1697"> <rect width="49.1224" height="20.5288" fill="white" transform="translate(0 18.3984) rotate(-21.9965)" /></clipPath></defs></svg>